<?xml version="1.0" encoding="UTF-8"?>
<svg version="1.1" xmlns="http://www.w3.org/2000/svg" width="640" height="636">
<path d="M0 0 C211.2 0 422.4 0 640 0 C640 209.88 640 419.76 640 636 C428.8 636 217.6 636 0 636 C0 426.12 0 216.24 0 0 Z " fill="#FCFDFD" transform="translate(0,0)"/>
<path d="M0 0 C0.83047852 0.1453418 1.66095703 0.29068359 2.51660156 0.44042969 C48.78161381 8.79314001 88.59368373 30.22935243 122 63 C122.60593994 63.59272705 123.21187988 64.1854541 123.83618164 64.79614258 C128.98437177 69.88120682 133.52894961 75.31433963 138 81 C138.69101807 81.86842529 138.69101807 81.86842529 139.39599609 82.75439453 C174.18980609 126.697731 190.46004568 184.37048126 184.43359375 240.1640625 C183.88253031 244.41387889 183.18940418 248.63027172 182.40136719 252.84228516 C182.03929539 254.78875141 181.72380011 256.74374196 181.4140625 258.69921875 C173.82737691 302.69214233 151.11107791 341.57814092 120 373 C119.41162354 373.60013916 118.82324707 374.20027832 118.21704102 374.81860352 C113.12703959 379.97311353 107.69201448 384.52395291 102 389 C101.4210498 389.46067871 100.84209961 389.92135742 100.24560547 390.39599609 C89.75594748 398.70158224 78.79800426 405.69533943 67 412 C65.9788208 412.54865723 65.9788208 412.54865723 64.93701172 413.10839844 C45.76989391 423.21633627 23.40603135 430.64278886 1.9375 433.625 C1.11701172 433.74617188 0.29652344 433.86734375 -0.54882812 433.9921875 C-3.03012959 434.35083594 -5.51307876 434.6827668 -8 435 C-8.77351807 435.09933838 -9.54703613 435.19867676 -10.34399414 435.30102539 C-17.6596591 436.13986432 -24.95499253 436.1926556 -32.3125 436.1875 C-32.96929749 436.18722809 -33.62609497 436.18695618 -34.30279541 436.18667603 C-45.96118698 436.16459507 -57.44747259 435.59362651 -69 434 C-70.01296143 433.86319824 -70.01296143 433.86319824 -71.04638672 433.72363281 C-116.99246767 427.16483839 -158.26912626 403.10805764 -191 371 C-191.90890991 370.11090942 -191.90890991 370.11090942 -192.83618164 369.20385742 C-197.98437177 364.11879318 -202.52894961 358.68566037 -207 353 C-207.46067871 352.4210498 -207.92135742 351.84209961 -208.39599609 351.24560547 C-243.81721509 306.50987389 -259.20972896 249.20712533 -253.07788086 192.66113281 C-252.47253587 187.75931484 -251.77640848 182.87750898 -251 178 C-250.88785156 177.27474121 -250.77570313 176.54948242 -250.66015625 175.80224609 C-245.64805367 144.46887024 -231.6580687 114.48032171 -213 89 C-211.86304688 87.43185547 -211.86304688 87.43185547 -210.703125 85.83203125 C-199.88227953 71.18904155 -186.93219508 57.54778749 -172.63232422 46.28613281 C-171.51042963 45.40217518 -170.39246496 44.51321405 -169.27783203 43.62011719 C-152.45703231 30.19805628 -133.84737715 20.20595593 -114 12 C-112.85015625 11.52046875 -111.7003125 11.0409375 -110.515625 10.546875 C-99.06223291 6.13312878 -86.98094467 3.54280088 -75 1 C-74.14083984 0.81630859 -73.28167969 0.63261719 -72.39648438 0.44335938 C-49.6089876 -4.18794564 -22.85735721 -4.16999319 0 0 Z " fill="#FEFEFE" transform="translate(356,101)"/>
<path d="M0 0 C211.2 0 422.4 0 640 0 C640 209.88 640 419.76 640 636 C428.8 636 217.6 636 0 636 C0 426.12 0 216.24 0 0 Z M270 5 C268.98647461 5.16048828 267.97294922 5.32097656 266.92871094 5.48632812 C260.92985348 6.44688706 255.11950258 7.63514539 249.2644043 9.26928711 C248.60609619 9.45241455 247.94778809 9.63554199 247.26953125 9.82421875 C246.24400146 10.11111572 246.24400146 10.11111572 245.19775391 10.40380859 C242.851906 11.04017391 240.49688235 11.6261034 238.13671875 12.20703125 C217.62690055 17.36131105 197.59824048 24.94762477 178.953125 34.96240234 C176.76420322 36.12526704 174.55581291 37.24509066 172.34375 38.36328125 C162.06823232 43.59606012 152.38935509 49.30761395 143 56 C142.36046387 56.45552246 141.72092773 56.91104492 141.06201172 57.38037109 C130.3779974 65.0329716 120.06728299 72.99466329 110.35546875 81.86328125 C108.33006029 83.70059208 106.27168745 85.48040688 104.1875 87.25 C95.45499651 94.88652127 87.35423365 103.18484419 80.16015625 112.28515625 C77.92783932 115.09069019 75.59394516 117.78734436 73.25 120.5 C61.58359528 134.51413323 52.06788429 150.22359724 43 166 C42.60361328 166.68143066 42.20722656 167.36286133 41.79882812 168.06494141 C24.50995585 198.05079743 14.02598148 232.08735969 8 266 C7.73098877 267.51279541 7.73098877 267.51279541 7.45654297 269.05615234 C1.78129416 303.16963901 1.65775231 343.12620279 9.53076172 376.90551758 C9.96577722 378.84724388 10.31109526 380.80847548 10.6484375 382.76953125 C18.67199224 428.91944348 41.20574106 474.43850359 70 511 C70.61746094 511.79792969 71.23492187 512.59585937 71.87109375 513.41796875 C84.48835831 529.49776745 98.17752466 545.26050705 114.33984375 557.875 C116.55829777 559.64715711 118.67052702 561.47173054 120.7890625 563.359375 C124.83241239 566.91642434 129.05776482 570.12092361 133.4375 573.25 C134.22044434 573.81009766 135.00338867 574.37019531 135.81005859 574.94726562 C176.10857127 603.56869068 221.24066463 622.68874965 270 631 C270.8559375 631.15243164 271.711875 631.30486328 272.59375 631.46191406 C288.85684576 634.23022779 305.17449672 634.31601894 321.625 634.375 C322.69807404 634.38285522 323.77114807 634.39071045 324.8767395 634.39880371 C339.63599008 634.48275352 353.94087912 633.4716736 368.54747009 631.35070801 C371.88057124 630.87407967 375.22028931 630.46983965 378.5625 630.0625 C385.19735245 629.08608022 391.56889804 627.4004413 398.01074219 625.55761719 C400.02440403 624.9931592 402.04476944 624.46539736 404.0703125 623.9453125 C441.10265468 614.31289358 476.01114902 597.38297122 507 575 C507.67691895 574.5138623 508.35383789 574.02772461 509.05126953 573.52685547 C517.27118621 567.59421996 525.04825604 561.41291223 532.41015625 554.44140625 C534.54072404 552.43295245 536.70350995 550.51529927 538.9375 548.625 C547.63886593 541.04756051 555.68557306 532.76480141 562.83984375 523.71484375 C565.07216068 520.90930981 567.40605484 518.21265564 569.75 515.5 C581.42290927 501.47805326 590.89077267 485.76160911 600 470 C600.36399902 469.38334473 600.72799805 468.76668945 601.10302734 468.13134766 C616.4000477 442.10480499 627.36009496 410.73407058 632.61914062 381.13525391 C633.00076352 378.99571938 633.41159839 376.86345654 633.828125 374.73046875 C637.40589372 356.02956627 638.37947594 337.51722709 638.3125 318.5 C638.31034485 317.39783142 638.3081897 316.29566284 638.30596924 315.16009521 C638.25406655 298.60673834 637.89486086 282.34127978 635 266 C634.80664062 264.89785156 634.61328125 263.79570312 634.4140625 262.66015625 C625.41429769 213.27255803 605.02640184 164.02859006 573 125 C572.36320313 124.1853125 571.72640625 123.370625 571.0703125 122.53125 C558.49201393 106.45608005 544.79948704 90.72155086 528.66015625 78.125 C526.43974006 76.35127547 524.3242771 74.52527358 522.203125 72.63671875 C497.12135574 50.57603582 465.96738077 34.01648364 435 22 C434.24912109 21.7004541 433.49824219 21.4009082 432.72460938 21.09228516 C414.74403094 13.93589293 396.0885185 9.121593 377 6 C376.22640137 5.86996582 375.45280273 5.73993164 374.65576172 5.60595703 C372.16742789 5.18869544 369.67788243 4.77984653 367.1875 4.375 C366.05876465 4.18997925 366.05876465 4.18997925 364.90722656 4.0012207 C355.18678011 2.46981587 345.51842461 1.84100194 335.68359375 1.796875 C334.63648224 1.78999664 333.58937073 1.78311829 332.51052856 1.77603149 C329.15281653 1.75896075 325.79525312 1.75257844 322.4375 1.75 C321.29538055 1.74832825 320.15326111 1.74665649 318.97653198 1.74493408 C302.45108869 1.7434811 286.32482466 2.21841306 270 5 Z " fill="#FEFEFE" transform="translate(0,0)"/>
<path d="M0 0 C3.76126944 3.31912343 6.84490909 7.14452702 9.875 11.125 C10.31062256 11.69629639 10.74624512 12.26759277 11.19506836 12.85620117 C15.11277089 18.05356617 18.67408196 23.40308066 22 29 C22.34385742 29.57556641 22.68771484 30.15113281 23.04199219 30.74414062 C29.20901031 41.14043772 34.36515865 51.84070669 39 63 C39.41121094 63.98484375 39.82242188 64.9696875 40.24609375 65.984375 C46.62028448 82.35389205 48.18094423 98.98029718 48.40136719 116.39575195 C48.42890788 118.40598489 48.47589031 120.415922 48.5234375 122.42578125 C48.54325684 123.61598877 48.56307617 124.80619629 48.58349609 126.0324707 C48.76699156 128.97743757 48.76699156 128.97743757 50.3449707 130.91357422 C52.08211952 132.27527617 52.08211952 132.27527617 54.95703125 131.95703125 C58.58233862 130.81685114 59.51259191 129.75192106 61.6875 126.6875 C73.28149331 111.2434259 87.67225731 96.72726622 103 85 C103.56734863 84.55624023 104.13469727 84.11248047 104.71923828 83.65527344 C115.34923721 75.34347412 126.43784717 67.95065835 138 61 C138.66290039 60.5978125 139.32580078 60.195625 140.00878906 59.78125 C149.78467424 53.91266234 149.78467424 53.91266234 154.20703125 54.23046875 C157.65260545 55.17980877 158.97877403 56.0459005 161 59 C161.41475902 64.13412694 160.70929234 67.44196198 158.39453125 72.0078125 C157.82968018 73.14460449 157.2648291 74.28139648 156.68286133 75.45263672 C156.22624619 76.34882721 156.22624619 76.34882721 155.76040649 77.26312256 C154.12339686 80.47853603 152.53302741 83.71698301 150.9375 86.953125 C150.44290031 87.95223404 150.44290031 87.95223404 149.93830872 88.9715271 C146.54403766 95.85815721 143.41683385 102.8540316 140.3125 109.875 C125.79715182 142.52796735 110.18385393 174.52780273 86.609375 201.76171875 C82.01387605 206.76938059 82.01387605 206.76938059 80.5 213.125 C80.665 214.07375 80.83 215.0225 81 216 C82.81240959 216.02760015 84.62494948 216.04665998 86.4375 216.0625 C87.95150391 216.07990234 87.95150391 216.07990234 89.49609375 216.09765625 C92.13582398 216.02408517 94.59278648 215.8310521 97.20068359 215.50439453 C101.57997461 215.00561379 105.88838549 214.83951911 110.29296875 214.83203125 C111.06553513 214.82788712 111.8381015 214.82374298 112.63407898 214.81947327 C115.15193453 214.80981095 117.66962872 214.80982097 120.1875 214.8125 C121.48750946 214.81240936 121.48750946 214.81240936 122.81378174 214.81231689 C136.1858415 214.82546543 149.52109903 215.18493959 162.875 215.875 C163.67110687 215.91420563 164.46721375 215.95341125 165.28744507 215.99380493 C184.79202019 216.97935524 184.79202019 216.97935524 190 219 C192.12599318 222.18898977 192.56352875 224.21115183 192.41796875 228.0234375 C191.83695183 230.77105022 190.39753568 232.09224786 188.13671875 233.66796875 C187.43160156 234.10753906 186.72648437 234.54710937 186 235 C185.09894531 235.59425781 184.19789063 236.18851563 183.26953125 236.80078125 C157.47154574 253.30508254 127.38743319 265.78000683 96.49365234 266.62231445 C92.80833959 266.74685989 91.14926616 266.90048923 88 269 C87.4829947 272.59895921 87.70938383 274.48174715 89.49609375 277.66796875 C90.13675781 278.49941406 90.77742188 279.33085937 91.4375 280.1875 C96.18218741 286.42748283 96.58502396 291.2863507 96 299 C93.70772535 306.64091551 89.29085768 312.03532545 82.3125 315.8125 C64.10221932 325.02771975 39.58236513 320.31674612 21 315 C20.29939453 314.80245117 19.59878906 314.60490234 18.87695312 314.40136719 C10.27589799 311.91384924 2.21458738 308.47372301 -5.83691406 304.59057617 C-6.55202148 304.25517822 -7.26712891 303.91978027 -8.00390625 303.57421875 C-8.63111572 303.27088623 -9.2583252 302.96755371 -9.90454102 302.6550293 C-15.27167995 300.9772903 -19.18147135 302.21828749 -24.078125 304.6328125 C-25.23111084 305.18936523 -26.38409668 305.74591797 -27.57202148 306.31933594 C-28.17311737 306.61481323 -28.77421326 306.91029053 -29.39352417 307.21472168 C-47.92175578 316.2995949 -67.98534462 325.73804099 -89.125 321.3515625 C-95.7513627 318.98789044 -99.86616502 315.21898932 -103.02734375 308.96875 C-106.13713962 301.05811719 -106.24008993 292.50455704 -103.25 284.5625 C-101.946211 281.62780647 -100.80953582 279.77864974 -98.6875 277.3125 C-96.6154819 274.97170967 -96.6154819 274.97170967 -97.125 271.25 C-97.41375 270.1775 -97.7025 269.105 -98 268 C-100.2562534 266.8718733 -101.69017515 266.80819786 -104.19921875 266.67578125 C-136.90613418 264.58035213 -172.20427767 252.6822386 -197.78515625 231.5234375 C-199.60398409 229.2425923 -199.4145029 226.8581996 -199.49609375 224.03515625 C-198.74021682 220.93427531 -197.5489115 219.93922457 -195 218 C-191.94035143 217.25256663 -188.88078207 217.11404255 -185.7421875 216.953125 C-184.81884109 216.89201538 -183.89549469 216.83090576 -182.94416809 216.76794434 C-179.92196509 216.5749006 -176.89906673 216.41101421 -173.875 216.25 C-171.78098991 216.12689862 -169.68699585 216.00352419 -167.59301758 215.87988281 C-142.35425091 214.45279607 -117.23050947 214.61902348 -91.98242188 215.90820312 C-90.65601657 215.96962288 -89.32782657 216 -88 216 C-87.70423853 212.1169381 -87.54712113 209.73729555 -89.6171875 206.3671875 C-90.36226563 205.54476562 -91.10734375 204.72234375 -91.875 203.875 C-92.70386719 202.91980469 -93.53273438 201.96460938 -94.38671875 200.98046875 C-95.68029297 199.50513672 -95.68029297 199.50513672 -97 198 C-117.15260532 173.59408099 -132.06374959 144.86573241 -144.75976562 116.01049805 C-148.21991068 108.14982293 -151.75178407 100.34141476 -155.5 92.61328125 C-156.05624054 91.4614183 -156.05624054 91.4614183 -156.62371826 90.2862854 C-158.13371205 87.16049398 -159.64456709 84.03539063 -161.17626953 80.92016602 C-162.31754983 78.59455169 -163.4413441 76.26114987 -164.5625 73.92578125 C-164.90925781 73.23092117 -165.25601563 72.5360611 -165.61328125 71.82014465 C-167.71487663 67.3960751 -168.48862133 63.99870443 -168 59 C-166.5 56.5625 -166.5 56.5625 -164 55 C-156.64107231 54.11367611 -152.27279701 56.48878551 -146.0625 60.25 C-144.68759399 61.06102173 -144.68759399 61.06102173 -143.28491211 61.88842773 C-134.52205404 67.13398776 -126.16574345 72.87311809 -118 79 C-117.38044434 79.4626123 -116.76088867 79.92522461 -116.12255859 80.40185547 C-107.24666469 87.0747653 -98.98406385 94.28773407 -91 102 C-90.37915527 102.59893066 -89.75831055 103.19786133 -89.11865234 103.81494141 C-81.88652104 110.82983723 -74.94716617 117.88153165 -68.734375 125.828125 C-68.16203125 126.54484375 -67.5896875 127.2615625 -67 128 C-66.57203125 128.59296875 -66.1440625 129.1859375 -65.703125 129.796875 C-62.96158128 131.73356184 -60.24240942 131.18353261 -57 131 C-56.98541748 130.35264893 -56.97083496 129.70529785 -56.95581055 129.03833008 C-55.77439014 81.69384644 -41.4134668 36.82541067 -9 1 C-5.86128812 -0.56935594 -3.46144178 -0.35201103 0 0 Z " fill="#0C7A7A" transform="translate(325,157)"/>
<path d="M0 0 C1.07307404 -0.00785522 2.14614807 -0.01571045 3.2517395 -0.02380371 C18.01099008 -0.10775352 32.31587912 0.9033264 46.92247009 3.02429199 C50.25557124 3.50092033 53.59528931 3.90516035 56.9375 4.3125 C63.57235245 5.28891978 69.94389804 6.9745587 76.38574219 8.81738281 C78.39940403 9.3818408 80.41976944 9.90960264 82.4453125 10.4296875 C119.47765468 20.06210642 154.38614902 36.99202878 185.375 59.375 C186.05191895 59.8611377 186.72883789 60.34727539 187.42626953 60.84814453 C195.64618621 66.78078004 203.42325604 72.96208777 210.78515625 79.93359375 C212.91572404 81.94204755 215.07850995 83.85970073 217.3125 85.75 C226.01386593 93.32743949 234.06057306 101.61019859 241.21484375 110.66015625 C243.44716068 113.46569019 245.78105484 116.16234436 248.125 118.875 C259.79140472 132.88913323 269.30711571 148.59859724 278.375 164.375 C278.77138672 165.05643066 279.16777344 165.73786133 279.57617188 166.43994141 C296.86504415 196.42579743 307.34901852 230.46235969 313.375 264.375 C313.55434082 265.38353027 313.73368164 266.39206055 313.91845703 267.43115234 C319.59370584 301.54463901 319.71724769 341.50120279 311.84423828 375.28051758 C311.40922278 377.22224388 311.06390474 379.18347548 310.7265625 381.14453125 C302.70300776 427.29444348 280.16925894 472.81350359 251.375 509.375 C250.44880859 510.57189453 250.44880859 510.57189453 249.50390625 511.79296875 C236.88664169 527.87276745 223.19747534 543.63550705 207.03515625 556.25 C204.81474006 558.02372453 202.6992771 559.84972642 200.578125 561.73828125 C175.49635574 583.79896418 144.34238077 600.35851636 113.375 612.375 C112.62412109 612.6745459 111.87324219 612.9740918 111.09960938 613.28271484 C93.11903094 620.43910707 74.4635185 625.253407 55.375 628.375 C54.60140137 628.50503418 53.82780273 628.63506836 53.03076172 628.76904297 C50.54242789 629.18630456 48.05288243 629.59515347 45.5625 630 C44.43376465 630.18502075 44.43376465 630.18502075 43.28222656 630.3737793 C33.56178011 631.90518413 23.89342461 632.53399806 14.05859375 632.578125 C13.01148224 632.58500336 11.96437073 632.59188171 10.88552856 632.59896851 C7.52781653 632.61603925 4.17025312 632.62242156 0.8125 632.625 C-0.90067917 632.62750763 -0.90067917 632.62750763 -2.64846802 632.63006592 C-19.17391131 632.6315189 -35.30017534 632.15658694 -51.625 629.375 C-52.63852539 629.21451172 -53.65205078 629.05402344 -54.69628906 628.88867188 C-60.69514652 627.92811294 -66.50549742 626.73985461 -72.3605957 625.10571289 C-73.01890381 624.92258545 -73.67721191 624.73945801 -74.35546875 624.55078125 C-75.03915527 624.3595166 -75.7228418 624.16825195 -76.42724609 623.97119141 C-78.773094 623.33482609 -81.12811765 622.7488966 -83.48828125 622.16796875 C-103.99809945 617.01368895 -124.02675952 609.42737523 -142.671875 599.41259766 C-144.86079678 598.24973296 -147.06918709 597.12990934 -149.28125 596.01171875 C-159.55676768 590.77893988 -169.23564491 585.06738605 -178.625 578.375 C-179.26453613 577.91947754 -179.90407227 577.46395508 -180.56298828 576.99462891 C-191.2470026 569.3420284 -201.55771701 561.38033671 -211.26953125 552.51171875 C-213.29493971 550.67440792 -215.35331255 548.89459312 -217.4375 547.125 C-226.17000349 539.48847873 -234.27076635 531.19015581 -241.46484375 522.08984375 C-243.69716068 519.28430981 -246.03105484 516.58765564 -248.375 513.875 C-260.04790927 499.85305326 -269.51577267 484.13660911 -278.625 468.375 C-278.98899902 467.75834473 -279.35299805 467.14168945 -279.72802734 466.50634766 C-295.0250477 440.47980499 -305.98509496 409.10907058 -311.24414062 379.51025391 C-311.62576352 377.37071938 -312.03659839 375.23845654 -312.453125 373.10546875 C-316.03089372 354.40456627 -317.00447594 335.89222709 -316.9375 316.875 C-316.93426727 315.22174713 -316.93426727 315.22174713 -316.93096924 313.53509521 C-316.87906655 296.98173834 -316.51986086 280.71627978 -313.625 264.375 C-313.43164062 263.27285156 -313.23828125 262.17070312 -313.0390625 261.03515625 C-304.03929769 211.64755803 -283.65140184 162.40359006 -251.625 123.375 C-250.98820312 122.5603125 -250.35140625 121.745625 -249.6953125 120.90625 C-237.11701393 104.83108005 -223.42448704 89.09655086 -207.28515625 76.5 C-205.06670223 74.72784289 -202.95447298 72.90326946 -200.8359375 71.015625 C-196.79258761 67.45857566 -192.56723518 64.25407639 -188.1875 61.125 C-187.40455566 60.56490234 -186.62161133 60.00480469 -185.81494141 59.42773438 C-145.51642873 30.80630932 -100.38433537 11.68625035 -51.625 3.375 C-50.7690625 3.22256836 -49.913125 3.07013672 -49.03125 2.91308594 C-32.76815424 0.14477221 -16.45050328 0.05898106 0 0 Z M-55.625 19.375 C-57.28861572 19.72522217 -57.28861572 19.72522217 -58.98583984 20.08251953 C-123.47536778 33.91321251 -187.58931032 67.0197354 -229.2890625 119.50390625 C-231.14878868 121.7896901 -233.04988451 123.99170546 -235.0078125 126.19140625 C-238.54236618 130.21284824 -241.75240286 134.40349225 -244.875 138.75 C-245.71188354 139.91402344 -245.71188354 139.91402344 -246.56567383 141.1015625 C-252.36295967 149.26698569 -257.58317989 157.72783492 -262.625 166.375 C-263.05409668 167.10154785 -263.48319336 167.8280957 -263.92529297 168.57666016 C-270.89195213 180.42340999 -276.46211354 192.64889033 -281.625 205.375 C-282.10710937 206.53515625 -282.58921875 207.6953125 -283.0859375 208.890625 C-295.23324642 239.06546882 -301.87908662 272.91155232 -302.625 305.375 C-302.64546387 306.16793457 -302.66592773 306.96086914 -302.68701172 307.77783203 C-303.77455 355.65648016 -293.9634602 404.37592565 -272.625 447.375 C-271.96443604 448.72851562 -271.96443604 448.72851562 -271.29052734 450.109375 C-264.1551591 464.64318942 -255.99520989 478.17653611 -246.625 491.375 C-245.82763428 492.49890137 -245.82763428 492.49890137 -245.01416016 493.64550781 C-239.16250417 501.81837572 -232.97177919 509.46652006 -226.07421875 516.77734375 C-224.0238415 518.95198629 -222.06056633 521.16171537 -220.125 523.4375 C-213.2045311 531.37956192 -205.70782523 538.54690643 -197.45703125 545.08984375 C-195.5619055 546.61901418 -193.70432449 548.19585905 -191.88671875 549.81640625 C-176.31053911 563.65960696 -158.16042302 574.92541851 -139.625 584.375 C-138.76116699 584.81650391 -137.89733398 585.25800781 -137.00732422 585.71289062 C-114.37876958 597.15721711 -91.25002434 605.38230013 -66.625 611.375 C-65.91118164 611.55256836 -65.19736328 611.73013672 -64.46191406 611.91308594 C9.22118091 629.89872329 92.05875363 613.84432192 156.39208984 575.20092773 C169.07192662 567.32589697 181.30079861 558.72565914 192.515625 548.8671875 C195.17798722 546.54671332 197.90890173 544.36598681 200.6875 542.1875 C211.20850749 533.60741044 220.94941755 523.71486074 229.28515625 513 C231.04302132 510.79199005 232.85500169 508.69254878 234.73046875 506.5859375 C262.75006963 474.73176163 281.11608387 433.86015877 292.375 393.375 C292.62620605 392.47749023 292.87741211 391.57998047 293.13623047 390.65527344 C298.73331675 370.2167807 301.8886722 348.5619765 302.375 327.375 C302.39546387 326.57674805 302.41592773 325.77849609 302.43701172 324.95605469 C302.75951893 310.65379277 301.94175754 296.5886048 300.375 282.375 C300.27848145 281.47313965 300.18196289 280.5712793 300.08251953 279.64208984 C293.38533924 218.99356882 266.54962516 160.73329587 225.484375 115.703125 C223.61824433 113.64346967 221.80430212 111.55111105 220 109.4375 C213.02258632 101.46331294 205.50728385 94.2423146 197.20703125 87.66015625 C195.3119055 86.13098582 193.45432449 84.55414095 191.63671875 82.93359375 C174.86740524 68.03000519 155.29366341 56.53169651 135.375 46.375 C134.58351563 45.96701172 133.79203125 45.55902344 132.9765625 45.13867188 C99.55770088 28.06354645 61.79068629 17.9508501 24.375 15.375 C23.40288574 15.30796875 22.43077148 15.2409375 21.42919922 15.171875 C-4.04339238 13.56218366 -30.57047177 14.0754456 -55.625 19.375 Z " fill="#0E7B7B" transform="translate(321.625,1.625)"/>
<path d="M0 0 C25.94689654 23.51437499 40.76712189 65.97684161 43.2890625 99.88671875 C43.824432 123.17529206 38.75238393 146.62222005 33 169.0625 C32.7630542 169.9901416 32.5261084 170.9177832 32.28198242 171.87353516 C31.05585492 176.51592765 29.66796119 181.01771544 27.984375 185.515625 C26.00124453 190.82710944 24.56077643 196.17646827 23.25 201.6875 C23.02957031 202.59177734 22.80914062 203.49605469 22.58203125 204.42773438 C22.04914204 206.61721396 21.52185892 208.80787039 21 211 C19.49607234 206.96670953 20.32922355 203.07619362 20.92578125 198.9375 C21.03343307 198.15036621 21.1410849 197.36323242 21.2519989 196.55224609 C21.59843228 194.03379413 21.95551469 191.51697546 22.3125 189 C22.54167185 187.3373299 22.77019404 185.67457012 22.99804688 184.01171875 C23.94234716 177.17471456 24.91383005 170.35114361 26.09765625 163.55078125 C28.77824318 147.82158227 29.1910633 131.73928988 29.25 115.8125 C29.25918457 114.56170654 29.26836914 113.31091309 29.27783203 112.0222168 C29.23844683 100.11606942 28.00407327 88.32226573 24.875 76.8125 C24.66327148 76.02770264 24.45154297 75.24290527 24.23339844 74.43432617 C19.57781308 57.90241458 12.75978671 40.57701793 2 27 C0.13273659 27.05486929 0.13273659 27.05486929 -2 28 C-3.61384531 29.96270284 -4.9244892 31.79189531 -6.25 33.9375 C-6.63768555 34.5564917 -7.02537109 35.1754834 -7.42480469 35.81323242 C-15.17032295 48.564347 -20.59621287 62.50149484 -24 77 C-24.29414795 78.22227295 -24.29414795 78.22227295 -24.59423828 79.46923828 C-31.39107295 109.02963372 -28.7622116 140.13842893 -24.32012939 169.85400391 C-23.98217748 172.11947373 -23.65035504 174.38577975 -23.31982422 176.65234375 C-21.97135329 185.90539444 -21.97135329 185.90539444 -20.57543945 195.15136719 C-20.47034561 195.84157959 -20.36525177 196.53179199 -20.25697327 197.24291992 C-19.97250661 199.10734578 -19.68414918 200.97117683 -19.39550781 202.83496094 C-19.04946844 205.60413034 -18.92012577 208.21487736 -19 211 C-21.34932472 207.47601293 -21.96111175 204.12940713 -22.8125 200.0625 C-23.95069908 194.91691411 -25.18441222 190.13038437 -27.375 185.3125 C-34.03045487 170.30188947 -37.03057111 153.56891636 -39.609375 137.43945312 C-39.8500203 135.9366232 -40.09835855 134.43497288 -40.359375 132.93554688 C-47.79922559 90.11212113 -35.43984841 53.55246774 -13.125 17.3125 C-12.61445068 16.48266602 -12.10390137 15.65283203 -11.57788086 14.79785156 C-8.16488202 9.42769824 -4.31867808 4.66881951 0 0 Z " fill="#C6C9C9" transform="translate(321,168)"/>
<path d="M0 0 C0.99 0.495 0.99 0.495 2 1 C1.51140503 1.99906372 1.51140503 1.99906372 1.01293945 3.01831055 C-5.4766086 16.31775238 -11.81030448 29.66097224 -17.8125 43.1875 C-22.00933512 52.63396969 -26.26545803 62.01099517 -31.05078125 71.17529297 C-32.06870209 73.13206775 -33.06553373 75.09888035 -34.0625 77.06640625 C-41.99447067 92.55954408 -51.15507152 107.36976203 -62 121 C-62.73863281 121.93070312 -63.47726562 122.86140625 -64.23828125 123.8203125 C-74.230065 136.21081463 -84.88382217 148.78943563 -98 158 C-98.99 158 -99.98 158 -101 158 C-100.61070312 157.59652344 -100.22140625 157.19304687 -99.8203125 156.77734375 C-81.17579924 136.54332129 -68.26329736 108.94289166 -56.875 84.1875 C-48.24736654 65.49206482 -37.34648475 48.04425778 -25.171875 31.46386719 C-23.17807451 28.73646734 -21.38361979 26.08883768 -20 23 C-59.09200765 40.21086177 -83.90307027 83.02575402 -98.91748047 121.11425781 C-102.6094926 130.95629285 -105.78616391 140.99379316 -109 151 C-109.33 151 -109.66 151 -110 151 C-107.56243112 119.68235366 -96.4771906 84.48694012 -74.30078125 61.40625 C-72.37640027 59.39365462 -70.5528826 57.34496624 -68.734375 55.23828125 C-58.78296394 43.81470501 -47.93558529 33.25559614 -35.72705078 24.27392578 C-33.95902089 22.96977255 -32.2113778 21.64136158 -30.46484375 20.30859375 C-23.40901174 14.97330289 -16.13538157 10.02223134 -8.6875 5.25 C-7.44093628 4.44284546 -7.44093628 4.44284546 -6.16918945 3.61938477 C-5.39534912 3.13139404 -4.62150879 2.64340332 -3.82421875 2.140625 C-2.78914185 1.48368652 -2.78914185 1.48368652 -1.7331543 0.81347656 C-1.16121338 0.5450293 -0.58927246 0.27658203 0 0 Z " fill="#C6C9C9" transform="translate(472,224)"/>
<path d="M0 0 C5.14505533 1.73580655 9.51291188 4.66490173 14.0625 7.5625 C14.90868896 8.0997168 15.75487793 8.63693359 16.62670898 9.19042969 C23.34120882 13.4947768 29.73867167 18.05439044 36 23 C36.83402344 23.64195312 37.66804688 24.28390625 38.52734375 24.9453125 C74.60253506 53.09877934 98.84717067 86.28242725 109 131 C109.15098145 131.64694824 109.30196289 132.29389648 109.45751953 132.96044922 C110.87925598 139.0599593 112.18892712 144.70872697 112 151 C110.05150868 148.07726303 109.19312376 145.82903436 108.15234375 142.50390625 C107.79914063 141.39772949 107.4459375 140.29155273 107.08203125 139.15185547 C106.70433594 137.96736816 106.32664062 136.78288086 105.9375 135.5625 C102.03962641 123.63000791 97.56054495 112.24950336 92 101 C91.45110107 99.88359131 91.45110107 99.88359131 90.89111328 98.74462891 C85.69570288 88.29187605 79.74575434 78.52054593 73 69 C72.25878906 67.95070313 71.51757812 66.90140625 70.75390625 65.8203125 C58.58936755 49.12388683 42.02579933 30.00522258 22 23 C24.64635072 27.8343266 27.57278553 32.19618466 30.9375 36.5625 C41.72543265 50.94579498 50.20086334 66.84733023 58 83 C70.15542277 108.08746345 82.7136556 132.97334178 100 155 C101.00314433 156.33096928 102.0046446 157.66319582 103 159 C98.86836508 157.29035796 95.71099715 154.39760856 92.375 151.5 C91.75326904 150.96101074 91.13153809 150.42202148 90.4909668 149.86669922 C81.00050334 141.56697992 72.88394723 132.71811439 65.28759766 122.68896484 C64.13018744 121.17076919 62.94747385 119.67194344 61.76171875 118.17578125 C44.74840531 96.37261357 31.66505184 71.00464735 20.70581055 45.7265625 C15.74978131 34.29834762 10.42405432 23.05478869 5.07861328 11.8046875 C4.74086884 11.09228912 4.40312439 10.37989075 4.05514526 9.64590454 C3.41631131 8.29897557 2.77569798 6.95288872 2.13308716 5.60775757 C0 1.11181696 0 1.11181696 0 0 Z " fill="#C6C9C9" transform="translate(169,224)"/>
<path d="M0 0 C0.98468262 0.17192871 1.96936523 0.34385742 2.98388672 0.52099609 C6.30646234 1.11628468 9.62259328 1.73843129 12.9375 2.375 C13.96875 2.57182373 15 2.76864746 16.0625 2.97143555 C22.13363168 4.20377736 27.82614539 5.86352745 33.60888672 8.08911133 C35.78422624 8.91780152 37.96088187 9.63666857 40.1875 10.3125 C60.13956365 16.96318788 79.32829752 27.26089484 96 40 C97.46373047 41.03833984 97.46373047 41.03833984 98.95703125 42.09765625 C133.49856232 66.83623607 158.56689306 102.81126076 174 142 C174.26748047 142.6698291 174.53496094 143.3396582 174.81054688 144.02978516 C195.30080069 196.40480373 190.5735903 258.26927973 168.59863281 309.16674805 C162.45459574 322.98063388 154.96974058 335.83343147 146 348 C145.25492187 349.03125 144.50984375 350.0625 143.7421875 351.125 C121.01158864 381.73253906 91.31850028 404.79866916 57 421 C56.34386719 421.31211426 55.68773437 421.62422852 55.01171875 421.94580078 C39.28548378 429.35527687 22.97597146 433.50905903 6 437 C4.97003906 437.2165625 3.94007813 437.433125 2.87890625 437.65625 C-9.30519357 440.06123922 -21.68326473 440.20832758 -34.0625 440.1875 C-34.78643951 440.18656342 -35.51037903 440.18562683 -36.2562561 440.18466187 C-55.86048384 440.12989618 -74.01144091 437.96875987 -93 433 C-93.70543945 432.81598633 -94.41087891 432.63197266 -95.13769531 432.44238281 C-119.87903066 425.78645918 -143.41673971 414.17490363 -164 399 C-165.03125 398.25492187 -166.0625 397.50984375 -167.125 396.7421875 C-187.83153844 381.36453763 -205.6722643 362.39541351 -220 341 C-220.48597656 340.27441895 -220.97195312 339.54883789 -221.47265625 338.80126953 C-229.36974001 326.83460548 -235.43158753 314.19252452 -241 301 C-241.52811279 299.76310425 -241.52811279 299.76310425 -242.06689453 298.5012207 C-244.55677885 292.50650869 -246.40141433 286.4746901 -248 280.1875 C-248.25418701 279.1962915 -248.50837402 278.20508301 -248.77026367 277.18383789 C-252.41406362 262.68577382 -255.71927629 247.99774496 -256 233 C-256.02046387 232.01644531 -256.04092773 231.03289062 -256.06201172 230.01953125 C-257.14830698 168.18150012 -238.40357023 111.56150959 -195.21948242 66.26025391 C-193.49483548 64.49089661 -191.75318923 62.74106482 -190 61 C-189.3930127 60.39575195 -188.78602539 59.79150391 -188.16064453 59.16894531 C-180.23021249 51.35207061 -172.01952179 44.38766855 -162.76806641 38.18994141 C-160.95998227 36.97306733 -159.17286161 35.7292815 -157.38671875 34.48046875 C-112.65745193 3.49758833 -53.78347105 -9.42733962 0 0 Z M-79 4 C-80.3605249 4.27287842 -80.3605249 4.27287842 -81.74853516 4.55126953 C-123.77787297 13.02987581 -160.62683378 35.20478649 -191 65 C-191.60593994 65.59272705 -192.21187988 66.1854541 -192.83618164 66.79614258 C-197.49059014 71.39347983 -201.66463592 76.22602601 -205.71386719 81.36767578 C-206.59782482 82.48957037 -207.48678595 83.60753504 -208.37988281 84.72216797 C-243.26466819 128.44049053 -259.30045922 186.40480273 -253.46875 241.98828125 C-252.92967464 246.21181276 -252.23807889 250.39904902 -251.453125 254.58349609 C-250.99111432 257.04738709 -250.57250441 259.51628891 -250.15625 261.98828125 C-242.49646393 305.54933611 -219.66127949 343.73814344 -189 375 C-188.40872314 375.60448975 -187.81744629 376.20897949 -187.20825195 376.83178711 C-182.1216787 381.98148794 -176.6873394 386.52762927 -171 391 C-170.4210498 391.46067871 -169.84209961 391.92135742 -169.24560547 392.39599609 C-123.89454514 428.30442506 -65.4620253 443.72579213 -8.0625 437.1875 C-5.36348622 436.84033033 -2.68836327 436.43035602 0 436 C1.17949219 435.81695313 2.35898437 435.63390625 3.57421875 435.4453125 C34.09356301 430.00622144 64.85658467 418.30645106 90 400 C90.63083496 399.54286621 91.26166992 399.08573242 91.91162109 398.61474609 C102.64284595 390.78604276 112.52047405 382.29914575 122 373 C122.60593994 372.40727295 123.21187988 371.8145459 123.83618164 371.20385742 C128.98437177 366.11879318 133.52894961 360.68566037 138 355 C138.46067871 354.4210498 138.92135742 353.84209961 139.39599609 353.24560547 C163.86291511 322.34476262 179.04458138 285.08800033 184 246 C184.15033691 244.83682251 184.15033691 244.83682251 184.30371094 243.65014648 C186.72208464 222.63568393 185.41394497 200.80740596 182 180 C181.79117188 178.72576172 181.79117188 178.72576172 181.578125 177.42578125 C176.21522082 146.19183007 162.66417523 116.48866107 144 91 C143.24203125 89.95457031 142.4840625 88.90914063 141.703125 87.83203125 C130.88227953 73.18904155 117.93219508 59.54778749 103.63232422 48.28613281 C102.51042963 47.40217518 101.39246496 46.51321405 100.27783203 45.62011719 C71.27267957 22.47562172 36.51071128 8.1142738 0 2 C-1.93166016 1.66355469 -1.93166016 1.66355469 -3.90234375 1.3203125 C-28.44486147 -2.39925717 -54.83048485 -1.17401934 -79 4 Z " fill="#238787" transform="translate(356,99)"/>
<path d="M0 0 C3.79919068 3.04576468 6.45108563 5.87621453 7.9140625 10.609375 C8.79926076 20.14707452 8.10508709 27.78114552 2.1640625 35.421875 C-2.97111299 40.88111496 -7.59795824 41.80090405 -14.8984375 42.109375 C-22.58009022 41.91345612 -28.59966434 40.27388299 -33.99609375 34.6015625 C-39.42194731 27.64928678 -39.9476238 21.30547353 -39.0859375 12.609375 C-37.00768321 5.76884295 -33.20258457 0.3714418 -27.0859375 -3.390625 C-17.3743326 -7.27526696 -8.56861113 -5.71240742 0 0 Z " fill="#0F7C7C" transform="translate(88.0859375,215.390625)"/>
<path d="M0 0 C6.07487463 2.78083652 12.132429 8.01659257 14.55078125 14.34765625 C15.72526323 24.54926138 14.02207589 32.20628407 7.67578125 40.22265625 C4.32416044 44.18714487 0.335028 46.0966485 -4.78125 46.81640625 C-13.71151593 46.89658821 -19.68592575 45.86403989 -26.2578125 39.6328125 C-31.63678546 33.73787091 -32.98011264 28.40573318 -32.82421875 20.484375 C-31.91192659 12.85343118 -28.12698472 7.2163664 -22.1953125 2.50390625 C-15.60282881 -1.8615863 -7.61258359 -2.02759403 0 0 Z " fill="#0E7B7B" transform="translate(446.44921875,61.65234375)"/>
<path d="M0 0 C-3.16142159 1.76447077 -6.11680957 2.57357804 -9.65625 3.296875 C-26.58841961 6.61220571 -26.58841961 6.61220571 -42 14 C-42.77085937 14.48339844 -43.54171875 14.96679688 -44.3359375 15.46484375 C-49.07044234 18.68669993 -51.832328 21.67113968 -54 27 C-54.80153273 31.50385055 -54.87173234 34.72353478 -52.25 38.5625 C-41.07271334 43.50629987 -27.79088595 37.94846878 -17 34 C-9.95535159 31.06786351 -3.17173126 27.58363853 3.625 24.125 C7.07242282 22.39221983 10.52388724 20.66760008 13.9765625 18.9453125 C14.81377335 18.52711746 15.65098419 18.10892242 16.51356506 17.67805481 C22.20273901 14.85137179 27.92987782 12.1275081 33.72265625 9.51953125 C34.42875031 9.19739655 35.13484436 8.87526184 35.86233521 8.54336548 C43.00493395 5.37734738 50.3612019 3.57400147 58 2 C58.79664063 1.80664062 59.59328125 1.61328125 60.4140625 1.4140625 C77.94689143 -1.3933089 96.15970505 1.7539539 110.875 11.75 C116.20000256 15.84971254 120.92917132 20.38784814 122.49609375 27.13671875 C122.81164256 32.15681349 121.14559336 35.24276349 118 39 C108.15443165 47.37920711 92.12228736 45.83231652 80 45 C72.47955262 44.11818455 65.25409768 42.10928251 58 40 C58 39.67 58 39.34 58 39 C61.9573093 39.48806815 65.90979323 39.98749157 69.859375 40.53515625 C84.64986078 42.53989077 101.20619186 44.38212597 114 35 C116.18106507 32.36454638 116.00061574 31.03386574 115.9375 27.5625 C114.27490937 21.24465562 109.4469949 18.18597815 104 15 C86.92223221 7.04397507 65.90540707 6.19157886 48 12 C45.21441991 13.10780734 42.48209788 14.32157826 39.75 15.5546875 C38.96960861 15.90433563 38.18921722 16.25398376 37.38517761 16.61422729 C27.7964691 20.94554683 18.37552233 25.62160073 8.95092773 30.29638672 C-24.99691908 47.11046049 -24.99691908 47.11046049 -41.8125 47.4375 C-42.88927002 47.47109619 -42.88927002 47.47109619 -43.98779297 47.50537109 C-49.13434358 47.4825722 -52.0652595 46.26813529 -56 43 C-59.47571215 37.32300349 -59.96520207 31.55769645 -59 25 C-56.49756074 17.75809244 -50.48556497 13.57188761 -44 10 C-31.45089447 4.10343234 -13.91836814 -0.83414878 0 0 Z " fill="#C0C7C7" transform="translate(289,422)"/>
<path d="M0 0 C4.42678396 8.34114277 8.31685537 16.84210208 11.9375 25.5625 C12.3389624 26.51398926 12.7404248 27.46547852 13.15405273 28.44580078 C13.52473877 29.35185059 13.8954248 30.25790039 14.27734375 31.19140625 C14.60984131 31.99779541 14.94233887 32.80418457 15.28491211 33.63500977 C16.06151919 36.20346069 16.13061238 38.33177571 16 41 C11.03827171 44.24031235 8.13102522 45.7906819 2 45 C-0.66308862 43.44814663 -2.81961423 41.47630826 -5.0625 39.375 C-5.94131836 38.59189453 -5.94131836 38.59189453 -6.83789062 37.79296875 C-10.69260993 34.32757181 -14.36050833 30.68934772 -18 27 C-17.5831897 27.97610229 -17.5831897 27.97610229 -17.15795898 28.97192383 C-15.90788419 31.91468237 -14.67255786 34.86340938 -13.4375 37.8125 C-12.99986328 38.83666016 -12.56222656 39.86082031 -12.11132812 40.91601562 C-11.70205078 41.89892578 -11.29277344 42.88183594 -10.87109375 43.89453125 C-10.48880615 44.80050049 -10.10651855 45.70646973 -9.71264648 46.63989258 C-9 49 -9 49 -10 52 C-12.88117993 53.83347814 -15.01905046 54.96885874 -18.4609375 55.078125 C-21.81520466 53.65385156 -22.5357983 51.62772499 -23.92993164 48.3737793 C-24.2418042 47.59043213 -24.55367676 46.80708496 -24.875 46 C-25.20943115 45.19925049 -25.5438623 44.39850098 -25.88842773 43.57348633 C-26.58655237 41.89677136 -27.27677024 40.21674474 -27.95947266 38.53369141 C-28.97090875 36.07083739 -30.02898972 33.63424348 -31.10546875 31.19921875 C-31.75857271 29.69564248 -32.41094652 28.19174879 -33.0625 26.6875 C-33.37364746 25.98947266 -33.68479492 25.29144531 -34.00537109 24.57226562 C-35.65081062 20.66899691 -36.46654202 18.05718478 -35 14 C-33.05779403 11.52810149 -32.06261493 11.02087164 -29 10 C-24.44392988 9.46239459 -22.54278444 9.6349471 -18.68359375 12.23046875 C-17.58607318 13.19886925 -16.50414264 14.18519045 -15.4375 15.1875 C-14.35299789 16.16030489 -13.26836313 17.13296191 -12.18359375 18.10546875 C-11.40024658 18.82355713 -11.40024658 18.82355713 -10.60107422 19.55615234 C-8.13141699 21.78328757 -5.56809603 23.8875962 -3 26 C-3.24234375 25.40985107 -3.4846875 24.81970215 -3.734375 24.21166992 C-4.82832331 21.53912264 -5.91424039 18.8633839 -7 16.1875 C-7.3815625 15.25873047 -7.763125 14.32996094 -8.15625 13.37304688 C-8.5171875 12.48037109 -8.878125 11.58769531 -9.25 10.66796875 C-9.58515625 9.84578857 -9.9203125 9.0236084 -10.265625 8.17651367 C-11 6 -11 6 -11 3 C-7.06312043 0.80267187 -4.48703763 -0.18345639 0 0 Z " fill="#0E7B7B" transform="translate(231,50)"/>
<path d="M0 0 C7.26668841 4.90501467 13.21289247 11.63867741 16 20 C16.39614654 25.24894167 15.86557317 28.55342094 13 33 C8.60666748 36.96471471 6.23151387 38.130599 0.375 38.0625 C-0.62789062 38.05347656 -1.63078125 38.04445312 -2.6640625 38.03515625 C-3.43492187 38.02355469 -4.20578125 38.01195312 -5 38 C-5.103125 38.99 -5.20625 39.98 -5.3125 41 C-5.90808706 45.28297163 -7.38595027 48.99996371 -9 53 C-15.38197767 52.51834131 -15.38197767 52.51834131 -17.9375 50.375 C-20.489765 44.66993705 -18.74512156 39.54726636 -16.65625 34.015625 C-15.84520698 31.87785863 -15.84520698 31.87785863 -16 29 C-19.43950364 29.61198376 -21.51564485 30.92058847 -24.25 33.0625 C-24.95640625 33.61035156 -25.6628125 34.15820312 -26.390625 34.72265625 C-27.18726563 35.35494141 -27.18726563 35.35494141 -28 36 C-34 30 -34 30 -34.48828125 27.33203125 C-33.76510162 22.39705348 -30.96478773 20.68985496 -27.1875 17.6875 C-26.16994629 16.84481567 -26.16994629 16.84481567 -25.13183594 15.98510742 C-23.10014455 14.30774186 -21.05085539 12.65383407 -19 11 C-17.88486639 10.07775605 -16.77142068 9.153465 -15.66015625 8.2265625 C-4.89929255 -0.69989894 -4.89929255 -0.69989894 0 0 Z " fill="#0F7B7B" transform="translate(532,127)"/>
<path d="M0 0 C3.78436428 1.30834899 6.38733646 3.24899308 8.9375 6.375 C10.17071876 9.42177577 10.22728306 11.74227611 10 15 C10.969375 14.835 11.93875 14.67 12.9375 14.5 C15.8968279 14.08931776 18.8258784 13.84665442 21.8125 13.75 C22.93591797 13.71132812 22.93591797 13.71132812 24.08203125 13.671875 C24.71496094 13.78015625 25.34789062 13.8884375 26 14 C28 17 28 17 27.9375 19.9375 C26.72922319 23.88453757 25.50016057 24.84356862 22 27 C19.20607672 27.46559433 16.50978646 27.38115183 13.6875 27.25 C12.57665039 27.22292969 12.57665039 27.22292969 11.44335938 27.1953125 C9.6283429 27.14847337 7.81399834 27.07673789 6 27 C6 28.32 6 29.64 6 31 C8.2047587 32.80910141 8.2047587 32.80910141 11 34.25 C11.928125 34.77078125 12.85625 35.2915625 13.8125 35.828125 C14.534375 36.21484375 15.25625 36.6015625 16 37 C15.24761416 41.38154108 14.40271455 43.95546593 11 47 C4.09207124 47.04497349 -0.73040607 43.4693905 -6.375 39.8125 C-7.26960938 39.24724609 -8.16421875 38.68199219 -9.0859375 38.09960938 C-14.78136468 34.48615885 -20.40347358 30.76442204 -26 27 C-25.70666783 17.90670286 -22.40515977 11.81053594 -16.375 5.0625 C-10.77351862 0.19805564 -7.4770814 -1.03528819 0 0 Z " fill="#0E7B7B" transform="translate(96,162)"/>
<path d="M0 0 C2 1.75 2 1.75 3 4 C3 5.32 3 6.64 3 8 C2.41992188 8.20753906 1.83984375 8.41507813 1.2421875 8.62890625 C-4.42544659 10.86416128 -9.23105298 13.32866273 -12 19 C-12.56862632 23.02952481 -11.98020903 26.38096509 -9.8671875 29.87109375 C-8.12694576 32.04379078 -6.50513536 33.74743232 -4 35 C2.26407421 35.52200618 5.09822453 34.92142038 10 31 C9.34 29.35 8.68 27.7 8 26 C6.88625 26.4640625 6.88625 26.4640625 5.75 26.9375 C4.8425 27.288125 3.935 27.63875 3 28 C2.319375 28.28875 1.63875 28.5775 0.9375 28.875 C-1 29 -1 29 -3.3125 27.375 C-5 25 -5 25 -4.90234375 22.6484375 C-3.72179283 19.1834439 -1.98392434 17.660383 0.75 15.25 C1.61109375 14.47140625 2.4721875 13.6928125 3.359375 12.890625 C7.65321788 9.81633513 7.65321788 9.81633513 11 10 C13.39521069 11.94534878 15.23570207 13.71416681 17.25 16 C17.79140625 16.56589844 18.3328125 17.13179687 18.890625 17.71484375 C22.44535409 21.63393258 23.90869508 24.52822648 24 30 C20.94146746 37.64633135 14.64805788 42.75504131 7.75 47 C1.25521897 48.73194161 -6.6679795 49.65968238 -12.875 46.5 C-18.34040085 42.67013058 -22.96849606 37.38472667 -25 31 C-25.99474184 22.35737287 -24.73020752 15.17689781 -19.3125 8.3125 C-13.75106982 2.3253801 -8.32553309 -1.26999657 0 0 Z " fill="#0F7C7C" transform="translate(152,96)"/>
<path d="M0 0 C4.78420417 3.80321593 7.18390668 8.58887213 9.875 13.9375 C10.30264648 14.77418213 10.73029297 15.61086426 11.17089844 16.47290039 C12.03712563 18.17020682 12.89979493 19.86933403 13.75878906 21.5703125 C14.90009034 23.80442547 16.07670816 26.01396964 17.2734375 28.21875 C17.93252603 29.45820874 18.59139559 30.69778395 19.25 31.9375 C19.83265625 33.01902344 20.4153125 34.10054687 21.015625 35.21484375 C22 38 22 38 21.359375 40.31640625 C19.19488522 42.99713929 16.88881532 43.01415078 13.5625 43.4375 C10 43 10 43 7.5625 40.125 C6 37 6 37 6 35 C1.38 35.66 -3.24 36.32 -8 37 C-8 40.3 -8 43.6 -8 47 C-10.35346396 48.17673198 -11.8806033 48.16623866 -14.5 48.1875 C-15.2940625 48.20167969 -16.088125 48.21585938 -16.90625 48.23046875 C-19 48 -19 48 -21 46 C-22.12899227 37.88423745 -20.30176782 29.2142802 -19.1875 21.1875 C-18.9390332 19.24327148 -18.9390332 19.24327148 -18.68554688 17.25976562 C-18.4293457 15.38901367 -18.4293457 15.38901367 -18.16796875 13.48046875 C-18.01610107 12.35535889 -17.8642334 11.23024902 -17.70776367 10.07104492 C-16.96183905 6.8344165 -15.92750726 4.69018348 -14 2 C-9.99171532 -0.47570525 -4.56892794 -1.11876146 0 0 Z " fill="#0E7B7B" transform="translate(277,39)"/>
<path d="M0 0 C0.77072845 0.00177246 1.54145691 0.00354492 2.33554077 0.00537109 C21.21037583 0.05542357 40.04037937 1.09463376 58.875 2.25 C58.875 2.91 58.875 3.57 58.875 4.25 C37.95772035 15.9494954 17.51022098 25.58785364 -6.125 30.25 C-7.16551514 30.45713623 -7.16551514 30.45713623 -8.22705078 30.66845703 C-27.50873969 34.32608481 -46.55454083 30.73504953 -65.125 25.25 C-65.125 24.92 -65.125 24.59 -65.125 24.25 C-63.45817469 24.3940088 -61.79154815 24.54031844 -60.125 24.6875 C-58.7328125 24.80931641 -58.7328125 24.80931641 -57.3125 24.93359375 C-55.02281587 25.16087857 -52.73822144 25.441818 -50.45898438 25.75708008 C-46.1620796 26.29606454 -41.92079273 26.42826506 -37.59375 26.453125 C-36.79956665 26.45882507 -36.0053833 26.46452515 -35.18713379 26.47039795 C-33.51311549 26.4797878 -31.83907921 26.48635779 -30.16503906 26.49023438 C-27.65915811 26.49986867 -25.15412426 26.53091986 -22.6484375 26.5625 C-8.41646572 26.65786028 4.79519514 24.8594809 18.25 19.9375 C19.09216064 19.63553711 19.93432129 19.33357422 20.80200195 19.02246094 C26.79348201 16.8070458 32.97496268 14.46040244 37.875 10.25 C38.205 9.26 38.535 8.27 38.875 7.25 C37.92326904 7.46003662 36.97153809 7.67007324 35.9909668 7.88647461 C24.96755945 10.07141737 14.03467353 10.57599114 2.83203125 10.69140625 C2.06458462 10.69931561 1.29713799 10.70722496 0.50643539 10.71537399 C-4.28682185 10.75981345 -9.08005354 10.78469541 -13.87347412 10.80297852 C-20.31235281 10.82811465 -26.75101378 10.86836892 -33.18969154 10.92487907 C-35.40054011 10.94082959 -37.61116918 10.94494819 -39.82206726 10.94789124 C-49.38452668 10.99867292 -58.66507374 11.86533187 -68.125 13.25 C-66.65706864 10.31413728 -64.36342149 10.10174231 -61.40014648 9.09277344 C-60.60809814 8.8352832 -59.8160498 8.57779297 -59 8.3125 C-58.18539307 8.04598633 -57.37078613 7.77947266 -56.53149414 7.50488281 C-38.16946763 1.6545267 -19.18297732 -0.128921 0 0 Z " fill="#C6C9C9" transform="translate(444.125,381.75)"/>
<path d="M0 0 C-3.79599191 1.26533064 -6.21777034 0.6730481 -10.17456055 0.08398438 C-17.82876594 -0.96950542 -25.34971594 -1.3066341 -33.07465553 -1.33552551 C-35.2866388 -1.34405704 -37.49825409 -1.36476829 -39.71012878 -1.38806152 C-44.41086199 -1.43556007 -49.11163335 -1.46891329 -53.8125 -1.5 C-60.006641 -1.54106313 -66.2006145 -1.58889128 -72.39453125 -1.65625 C-73.13358829 -1.6641153 -73.87264534 -1.67198059 -74.63409805 -1.68008423 C-85.83999728 -1.81314318 -96.89763124 -2.40293767 -108 -4 C-108.33 -3.34 -108.66 -2.68 -109 -2 C-108.30777344 -1.73960937 -107.61554688 -1.47921875 -106.90234375 -1.2109375 C-103.6741491 0.13595394 -100.65366626 1.73829 -97.5625 3.375 C-90.59446539 6.93588755 -83.60722422 9.14501566 -76 11 C-74.36502563 11.40508789 -74.36502563 11.40508789 -72.69702148 11.81835938 C-63.20981692 13.95004397 -54.16322603 14.405093 -44.45703125 14.28125 C-42.00244734 14.25003113 -39.54851342 14.24024764 -37.09375 14.234375 C-27.36033674 14.18607385 -17.70284287 13.77956324 -8 13 C-22.0989834 22.39932227 -47.18896647 21.02100745 -63 18 C-63.65790527 17.87496094 -64.31581055 17.74992187 -64.99365234 17.62109375 C-82.72573251 14.13974182 -99.10931258 7.48603983 -115 -1 C-115.64356445 -1.34160156 -116.28712891 -1.68320312 -116.95019531 -2.03515625 C-120.64642023 -4.00000143 -124.3289226 -5.98845074 -128 -8 C-128 -8.66 -128 -9.32 -128 -10 C-40.69388179 -15.2993947 -40.69388179 -15.2993947 0 0 Z " fill="#C5C9C9" transform="translate(268,394)"/>
<path d="M0 0 C7.52572643 4.02857793 7.52572643 4.02857793 9.21484375 7.48828125 C8.92172516 10.91510403 7.67373955 12.48559229 5.5625 15.1875 C4.8303125 16.14398438 4.098125 17.10046875 3.34375 18.0859375 C1.81988856 19.98060523 0.27899845 21.86174501 -1.28125 23.7265625 C-1.9928125 24.57992187 -2.704375 25.43328125 -3.4375 26.3125 C-4.42556641 27.45138672 -4.42556641 27.45138672 -5.43359375 28.61328125 C-7.30725562 31.46816256 -7.78680843 33.60747323 -8 37 C-6.58333333 39.58333333 -6.58333333 39.58333333 -4 41 C-1.13948746 41.27721778 -1.13948746 41.27721778 2 40 C4.68048322 37.52526815 6.84576503 34.70170062 9.0625 31.8125 C9.66126953 31.05646484 10.26003906 30.30042969 10.87695312 29.52148438 C12.04759248 28.04311945 13.21266882 26.56032895 14.37158203 25.07275391 C16.52460467 22.33224983 18.75276681 19.66354482 21 17 C22.11375 17.598125 23.2275 18.19625 24.375 18.8125 C25.00148438 19.14894531 25.62796875 19.48539063 26.2734375 19.83203125 C28 21 28 21 30 24 C29.51895273 29.76054112 24.36090317 34.60584619 21 39 C20.2575 39.99773437 19.515 40.99546875 18.75 42.0234375 C13.44990533 48.88779622 9.29286505 53.11785583 0.625 54.5625 C-7.10882124 53.36242429 -13.05576516 49.80044128 -17.84375 43.6484375 C-21.75932305 38.06610025 -22.14605189 33.73000681 -21 27 C-19.24617515 23.48206393 -16.95840072 20.61727504 -14.40087891 17.64404297 C-12.75331815 15.7104992 -11.16383763 13.73534185 -9.57421875 11.75390625 C-6.40910209 7.81405624 -3.21376881 3.9002263 0 0 Z " fill="#0F7B7B" transform="translate(484,85)"/>
<path d="M0 0 C4.59900487 3.09186111 8.19113106 8.37531984 9.8359375 13.63671875 C10.88751447 19.39702372 10.45344026 24.62535953 7.1875 29.5625 C1.48606787 35.90616241 -4.29080778 38.54901726 -12.4375 40.375 C-15.8125 39.5625 -15.8125 39.5625 -17.265625 37.88671875 C-18.9238923 35.17608951 -20.35494364 32.38651545 -21.8125 29.5625 C-22.59674938 28.20791806 -23.38892153 26.85790289 -24.1875 25.51171875 C-25.02107548 24.09128791 -25.85440888 22.67071498 -26.6875 21.25 C-27.09339355 20.56873047 -27.49928711 19.88746094 -27.91748047 19.18554688 C-31.71967234 12.54436331 -31.71967234 12.54436331 -30.8125 8.5625 C-23.36143472 0.28353858 -10.70596037 -5.17494315 0 0 Z " fill="#0F7B7B" transform="translate(457.8125,534.4375)"/>
<path d="M0 0 C3.30469003 2.34421608 3.76613679 5.15145811 4.60546875 8.98828125 C4.86650391 10.16970703 5.12753906 11.35113281 5.39648438 12.56835938 C5.65751953 13.80392578 5.91855469 15.03949219 6.1875 16.3125 C6.46013672 17.53646484 6.73277344 18.76042969 7.01367188 20.02148438 C8.19337067 25.45874274 9.1620127 30.41449416 9 36 C5.38901539 38.3610284 3.11618798 37.80632176 -1 37 C-1.48150942 34.95888458 -1.96010083 32.91708068 -2.4375 30.875 C-2.70433594 29.73804688 -2.97117187 28.60109375 -3.24609375 27.4296875 C-3.9350687 24.29538696 -4.50381194 21.16982274 -5 18 C-5.12117188 18.77085937 -5.24234375 19.54171875 -5.3671875 20.3359375 C-5.53476562 21.33882812 -5.70234375 22.34171875 -5.875 23.375 C-6.03742188 24.37273438 -6.19984375 25.37046875 -6.3671875 26.3984375 C-7 29 -7 29 -9 31 C-12.01826653 31.27240673 -14.96370622 31.08675125 -18 31 C-19.98 27.04 -21.96 23.08 -24 19 C-23.835 20.4025 -23.67 21.805 -23.5 23.25 C-22.89748627 29.173304 -22.9080246 35.05225749 -23 41 C-29.625 42.125 -29.625 42.125 -33 41 C-34.29437128 38.41125744 -34.31564046 36.25345985 -34.53515625 33.36328125 C-34.66567383 31.66075195 -34.66567383 31.66075195 -34.79882812 29.92382812 C-34.88583984 28.73208984 -34.97285156 27.54035156 -35.0625 26.3125 C-35.19881836 24.55389648 -35.19881836 24.55389648 -35.33789062 22.75976562 C-35.75846042 17.15954677 -36.12334434 11.61627894 -36 6 C-31.85673762 3.6324215 -28.78960803 2.08284102 -24 3 C-19.43588148 7.23811005 -17.27753435 12.27435498 -15 18 C-14.67 18 -14.34 18 -14 18 C-13.82984375 16.86820313 -13.6596875 15.73640625 -13.484375 14.5703125 C-13.24051404 13.08838821 -12.9956712 11.60662526 -12.75 10.125 C-12.58564453 9.00544922 -12.58564453 9.00544922 -12.41796875 7.86328125 C-11.4790233 2.3778631 -11.4790233 2.3778631 -9.11328125 0.51171875 C-5.95584721 -0.25283552 -3.23108021 -0.29373456 0 0 Z " fill="#117D7D" transform="translate(369,562)"/>
<path d="M0 0 C3.59537558 2.64287521 4.80662433 5.46075624 6.140625 9.640625 C6.48867188 10.71054688 6.83671875 11.78046875 7.1953125 12.8828125 C7.54335938 13.99398437 7.89140625 15.10515625 8.25 16.25 C8.61351562 17.37664062 8.97703125 18.50328125 9.3515625 19.6640625 C10.24531826 22.43940934 11.12764687 25.21786651 12 28 C8.3203125 30.9375 8.3203125 30.9375 5.4375 31.5 C3 31 3 31 1.484375 28.83203125 C-0.00287875 25.99450764 -1.13144534 23.21000127 -2.1875 20.1875 C-2.53167969 19.21167969 -2.87585938 18.23585937 -3.23046875 17.23046875 C-3.61138672 16.12638672 -3.61138672 16.12638672 -4 15 C-5.98 15 -7.96 15 -10 15 C-9.44119141 16.44632813 -9.44119141 16.44632813 -8.87109375 17.921875 C-8.39265834 19.19770275 -7.91482521 20.47375647 -7.4375 21.75 C-7.0672168 22.70132813 -7.0672168 22.70132813 -6.68945312 23.671875 C-5.69801439 26.35294876 -4.95037488 28.4979592 -5.234375 31.37109375 C-6 33 -6 33 -7.8125 34.3125 C-10.4572975 35.14372207 -11.49931688 35.21000796 -14 34 C-17.41278561 29.40586553 -19 24.69573142 -19 19 C-21.64 19.66 -24.28 20.32 -27 21 C-26.33291016 22.66289062 -26.33291016 22.66289062 -25.65234375 24.359375 C-25.08014994 25.82269031 -24.50856718 27.28624465 -23.9375 28.75 C-23.64294922 29.47960937 -23.34839844 30.20921875 -23.04492188 30.9609375 C-22.77099609 31.66992188 -22.49707031 32.37890625 -22.21484375 33.109375 C-21.95823975 33.75874023 -21.70163574 34.40810547 -21.43725586 35.07714844 C-20.906734 37.41014129 -21.14409284 38.77839771 -22 41 C-24.86120256 42.43060128 -26.84010585 42.38692581 -30 42 C-33.01226986 37.97049765 -34.53305249 33.26439898 -36.1875 28.5625 C-36.46013672 27.82451172 -36.73277344 27.08652344 -37.01367188 26.32617188 C-38.49544966 22.14822699 -39.70242418 18.47875967 -39 14 C-35.99472804 10.27139611 -32.95105928 8.9626539 -28.4765625 7.421875 C-27.85276703 7.20557434 -27.22897156 6.98927368 -26.58627319 6.76641846 C-25.27202251 6.31386009 -23.95577099 5.86707531 -22.63769531 5.42578125 C-20.63291834 4.75265866 -18.63679843 4.05754403 -16.640625 3.359375 C-15.35722668 2.92053958 -14.07338567 2.48299626 -12.7890625 2.046875 C-11.63100098 1.65338867 -10.47293945 1.25990234 -9.27978516 0.85449219 C-5.92427525 -0.01972879 -3.43955796 -0.46003419 0 0 Z " fill="#0F7C7C" transform="translate(586,217)"/>
<path d="M0 0 C4.63016559 1.54914744 8.53771192 3.53771192 12 7 C11.875 10.5 11.875 10.5 11 14 C9.25 15.625 9.25 15.625 7 16 C6.29875 15.566875 5.5975 15.13375 4.875 14.6875 C0.76057538 12.27251163 -3.30517827 12.2643686 -8 12 C-6.52127989 15.80479669 -4.53020954 17.2227459 -1.125 19.375 C2.97439385 22.16519437 5.91738994 24.36145942 8 29 C8.91000184 34.32083427 8.05165429 38.47513329 5 43 C-0.94234599 47.51317417 -7.93197886 46.66331794 -15 46 C-19.73639899 44.78821154 -22.97321749 42.9045465 -26.625 39.6875 C-28.45936615 36.10214799 -27.90481294 33.84545499 -27 30 C-24.3125 29.25 -24.3125 29.25 -21 29 C-18.25 30.875 -18.25 30.875 -16 33 C-13.71294169 34.14352916 -12.40735238 34.10334439 -9.875 34.0625 C-7.956875 34.0315625 -7.956875 34.0315625 -6 34 C-6 33.01 -6 32.02 -6 31 C-8.2891321 29.05918293 -8.2891321 29.05918293 -11.1875 27.1875 C-21.41553884 19.93824567 -21.41553884 19.93824567 -22.4296875 14.83984375 C-22.73562897 9.44987496 -21.57299539 6.18550889 -18 2 C-12.71835636 -1.52109576 -6.13032052 -0.62164897 0 0 Z " fill="#0E7B7B" transform="translate(395,43)"/>
<path d="M0 0 C2.38654401 2.88031173 2.99732733 4.45076729 3.015625 8.2109375 C1.62321035 13.40571523 -1.18960338 15.85989755 -5.0625 19.4375 C-5.72572266 20.07365234 -6.38894531 20.70980469 -7.07226562 21.36523438 C-8.70205813 22.92467612 -10.34413568 24.46834939 -12 26 C-10.90300781 25.55527344 -9.80601563 25.11054688 -8.67578125 24.65234375 C-7.22161738 24.0800599 -5.76717544 23.50848226 -4.3125 22.9375 C-3.59126953 22.64294922 -2.87003906 22.34839844 -2.12695312 22.04492188 C4.82386862 19.34711435 4.82386862 19.34711435 9 21 C10.41441874 23.82883747 10.31900332 25.87376745 10 29 C5.27018351 33.43879433 -1.53709529 35.04888606 -7.5 37.25 C-8.7488329 37.72620866 -9.99753224 38.20276775 -11.24609375 38.6796875 C-12.43332031 39.12054688 -13.62054688 39.56140625 -14.84375 40.015625 C-15.92849609 40.42071289 -17.01324219 40.82580078 -18.13085938 41.24316406 C-21.01244034 42.00328157 -22.32847214 42.27840909 -25 41 C-26.82773952 37.72267397 -28.12086295 35.3069587 -27.76953125 31.5078125 C-26.90447658 28.68870034 -25.86822408 27.27911212 -23.875 25.125 C-23.25238281 24.44695312 -22.62976562 23.76890625 -21.98828125 23.0703125 C-19.03813993 19.99845612 -16.04581355 16.97679408 -13 14 C-14.19238281 14.433125 -15.38476562 14.86625 -16.61328125 15.3125 C-18.1795982 15.87524861 -19.74600939 16.43773498 -21.3125 17 C-22.49102539 17.42925781 -22.49102539 17.42925781 -23.69335938 17.8671875 C-24.45068359 18.13789063 -25.20800781 18.40859375 -25.98828125 18.6875 C-26.68477783 18.93886719 -27.38127441 19.19023437 -28.09887695 19.44921875 C-30 20 -30 20 -33 20 C-34.26477359 17.39605438 -34.98337767 15.34075767 -35.125 12.4375 C-32.30724763 6.33236986 -20.75706301 3.84954071 -14.75 1.625 C-13.7703125 1.24472656 -12.790625 0.86445313 -11.78125 0.47265625 C-10.36585937 -0.05134766 -10.36585937 -0.05134766 -8.921875 -0.5859375 C-8.07206055 -0.9061084 -7.22224609 -1.2262793 -6.34667969 -1.55615234 C-3.45472888 -2.1031318 -2.40427724 -1.63124165 0 0 Z " fill="#117D7D" transform="translate(83,389)"/>
<path d="M0 0 C6.95730503 0.00928879 12.28367872 3.56891808 18.1875 6.9375 C20.13914411 8.03026733 22.09096024 9.1227275 24.04296875 10.21484375 C24.89914795 10.70073975 25.75532715 11.18663574 26.63745117 11.68725586 C28.73353596 12.85193994 30.8459284 13.94738925 33 15 C32.71865385 18.58716345 32.25816618 21.4652272 30.6875 24.71875 C26.35445746 28.39679774 21.7292303 27.52834847 16.25 27.3125 C15.17105469 27.28994141 14.09210937 27.26738281 12.98046875 27.24414062 C10.31971908 27.18527448 7.65968334 27.09559565 5 27 C10.61 29.97 16.22 32.94 22 36 C21 42 21 42 19 45 C14.66639547 44.45143239 11.38053437 43.41795033 7.5234375 41.3828125 C6.523125 40.85816406 5.5228125 40.33351563 4.4921875 39.79296875 C3.46351563 39.24253906 2.43484375 38.69210937 1.375 38.125 C-0.17960938 37.31095703 -0.17960938 37.31095703 -1.765625 36.48046875 C-6.06854114 34.20670557 -10.16868443 32.02013589 -14 29 C-13.73255553 25.52322191 -13.50164647 22.79807393 -11.625 19.8125 C-7.47276816 16.94548278 -3.18331606 17.32225896 1.75 17.25 C2.73355469 17.22035156 3.71710937 17.19070313 4.73046875 17.16015625 C7.1532064 17.08959108 9.57660783 17.04251565 12 17 C6.72 14.03 1.44 11.06 -4 8 C-2 2 -2 2 0 0 Z " fill="#0F7C7C" transform="translate(547,422)"/>
<path d="M0 0 C7.70174993 0.12225 12.84573377 2.40643798 19 7 C22.46140386 10.63025283 23.7661008 13.26246307 24.4375 18.25 C23.92447219 22.6473812 22.68167096 24.33326654 19.8984375 27.6171875 C17.36421795 29.4631005 15.07628064 29.66393573 12 30 C12.09539062 30.91523437 12.19078125 31.83046875 12.2890625 32.7734375 C12.39992187 33.96195313 12.51078125 35.15046875 12.625 36.375 C12.74101562 37.55835938 12.85703125 38.74171875 12.9765625 39.9609375 C12.98429687 40.96382812 12.99203125 41.96671875 13 43 C11 45 11 45 8.625 45.375 C5.1246477 44.87494967 4.18029457 43.74471321 2 41 C1.49609375 38.08984375 1.49609375 38.08984375 1.4375 34.9375 C1.4793184 30.67489183 1.4793184 30.67489183 -0.52734375 27.12890625 C-1.25630859 26.57009766 -1.25630859 26.57009766 -2 26 C-2.268125 26.9075 -2.53625 27.815 -2.8125 28.75 C-3.89576294 31.71471963 -4.98359457 33.6169754 -7 36 C-10.35595828 35.40072174 -12.37801226 34.15377564 -15 32 C-14.74569279 24.6038985 -11.05464868 18.95695381 -7.5 12.625 C-6.89285156 11.52027344 -6.28570312 10.41554688 -5.66015625 9.27734375 C-1.19829584 1.19829584 -1.19829584 1.19829584 0 0 Z " fill="#0F7C7C" transform="translate(188,530)"/>
<path d="M0 0 C6.29953408 2.78609531 10.67396231 7.97517657 14.12109375 13.8203125 C14.9742179 17.70676696 15.29976311 21.43476436 14.68359375 25.3828125 C12.99609375 27.4453125 12.99609375 27.4453125 10.68359375 28.3828125 C7.93359375 28.5703125 7.93359375 28.5703125 5.68359375 28.3828125 C5.585625 27.79113281 5.48765625 27.19945312 5.38671875 26.58984375 C4.43007399 21.53447102 3.4359264 18.13514515 -0.31640625 14.3828125 C-3.53776477 12.77213324 -6.82318694 12.91704993 -10.31640625 13.3828125 C-14.283024 14.93865092 -16.91900212 16.7867063 -19.31640625 20.3828125 C-20.08926746 25.1008606 -19.74004757 28.57935482 -17.50390625 32.8203125 C-15.3934732 35.5283715 -15.3934732 35.5283715 -12.31640625 37.3828125 C-14.19140625 42.2578125 -14.19140625 42.2578125 -15.31640625 43.3828125 C-19.43879015 43.85847218 -21.54857516 43.94954497 -24.94140625 41.4453125 C-30.7940179 33.89852379 -33.20069484 28.49669968 -32.7890625 18.69140625 C-31.93976118 12.74629702 -29.79002955 9.34586587 -25.12109375 5.640625 C-22.89813704 4.10729843 -20.67028883 2.70502919 -18.31640625 1.3828125 C-17.68347656 1.00640625 -17.05054688 0.63 -16.3984375 0.2421875 C-11.41700566 -1.81393821 -5.13431112 -1.36799521 0 0 Z " fill="#0F7B7B" transform="translate(563.31640625,174.6171875)"/>
<path d="M0 0 C4.28816024 4.18843559 5.77869308 6.80340622 6 13 C4.5859375 15.6328125 4.5859375 15.6328125 2.375 18.125 C1.55773437 19.05441406 0.74046875 19.98382813 -0.1015625 20.94140625 C-3.87788868 24.98215499 -7.78123176 28.90334602 -11.74462891 32.76025391 C-14.7503811 35.5875905 -14.7503811 35.5875905 -17 39 C-19.66753731 38.63206382 -20.81998328 38.18001672 -22.75 36.25 C-24.25565766 33.53981621 -24.47012267 32.05579737 -24 29 C-23 28 -22 27 -21 26 C-21.23198018 22.52029732 -23.15681876 19.88497934 -25 17 C-26.2375 17.268125 -27.475 17.53625 -28.75 17.8125 C-30.953125 18.08984375 -30.953125 18.08984375 -33 18 C-35.87397004 15.55712546 -36.85394621 14.04671885 -37.375 10.3125 C-37 8 -37 8 -35 6 C-33.00390625 5.34570312 -33.00390625 5.34570312 -30.5625 4.78125 C-29.66660156 4.57113281 -28.77070312 4.36101562 -27.84765625 4.14453125 C-26.90792969 3.93183594 -25.96820313 3.71914063 -25 3.5 C-24.09121094 3.28730469 -23.18242188 3.07460938 -22.24609375 2.85546875 C-19.50111343 2.21900816 -16.75169663 1.60670409 -14 1 C-12.62521484 0.68482422 -12.62521484 0.68482422 -11.22265625 0.36328125 C-10.34480469 0.17121094 -9.46695313 -0.02085937 -8.5625 -0.21875 C-7.38880859 -0.48075195 -7.38880859 -0.48075195 -6.19140625 -0.74804688 C-3.77150162 -1.0262712 -2.27372005 -0.86090023 0 0 Z " fill="#0F7C7C" transform="translate(105,440)"/>
<path d="M0 0 C5.45082089 2.27680306 9.57086153 5.53443844 12 11 C12.80559723 17.20402463 12.71322153 22.75027301 9 28 C4.09664451 32.5261743 0.02366306 34.5501501 -6.62109375 34.375 C-11.49608835 33.60652795 -15.08305766 31.07893747 -18.38671875 27.49609375 C-21.82170765 22.49426781 -21.85025549 16.85436329 -21 11 C-17.29946237 2.67379033 -8.96100739 -1.93920579 0 0 Z " fill="#0E7B7B" transform="translate(59,301)"/>
<path d="M0 0 C4.13736047 2.3502166 7.01643858 4.97206289 8.8125 9.4375 C9.82129048 14.97757887 9.54702081 19.88961512 6.8125 24.875 C3.46261432 29.47047698 -0.67258346 31.79354582 -6.234375 32.8125 C-11.71852283 33.15260219 -14.87294571 31.50747132 -19.1875 28.4375 C-23.99989541 23.24517863 -24.54124727 19.03317878 -24.46875 12.1640625 C-23.9421282 7.05875675 -21.29587353 4.43773953 -17.625 1.125 C-12.14945459 -2.66576221 -5.94556788 -2.63496759 0 0 Z " fill="#0E7B7B" transform="translate(596.1875,302.5625)"/>
<path d="M0 0 C4.29189508 0.67875018 7.0968281 1.92782578 9.875 5.3125 C10.53996137 9.50873119 10.38688541 13.63863267 10.25 17.875 C10.23582031 19.00486328 10.22164062 20.13472656 10.20703125 21.29882812 C10.08542763 28.33967798 9.61923594 35.31120205 8.875 42.3125 C1.125 41.4375 1.125 41.4375 -1.125 40.3125 C-1.125 37.3425 -1.125 34.3725 -1.125 31.3125 C-2.56875 31.003125 -4.0125 30.69375 -5.5 30.375 C-7.91423686 29.85766353 -9.91470467 29.41764766 -12.125 28.3125 C-12.434375 29.116875 -12.74375 29.92125 -13.0625 30.75 C-14.125 33.3125 -14.125 33.3125 -15.125 34.3125 C-18.59756915 34.62117281 -20.5122288 34.69951339 -23.5 32.8125 C-24.03625 32.3175 -24.5725 31.8225 -25.125 31.3125 C-24.72084657 25.90960676 -21.59303777 22.28466834 -18.5 18.0625 C-17.95166504 17.31049316 -17.40333008 16.55848633 -16.83837891 15.78369141 C-15.75292689 14.29757564 -14.66494358 12.81330483 -13.57421875 11.33105469 C-12.36649843 9.64887281 -11.2353726 7.91203187 -10.125 6.1640625 C-7.18870122 1.68903022 -5.56308794 -0.28633541 0 0 Z " fill="#0E7B7B" transform="translate(241.125,551.6875)"/>
<path d="M0 0 C5.67446713 3.25980027 5.67446713 3.25980027 6.984375 6.23828125 C7.00735337 10.29970879 4.81028642 12.53021808 2.3125 15.5 C1.86455078 16.05558594 1.41660156 16.61117187 0.95507812 17.18359375 C-1.09909177 19.72514311 -3.18837952 22.21408188 -5.34765625 24.66796875 C-7.39931197 27.04425234 -7.39931197 27.04425234 -6.75 30.8125 C-6.5025 31.864375 -6.255 32.91625 -6 34 C-3.29799579 34.58939897 -3.29799579 34.58939897 0 34 C5.32678221 30.1632268 9.20253302 24.3273848 13.10546875 19.13671875 C14.98310621 17.01905341 16.39996154 16.04347442 19 15 C21.5625 16.5625 21.5625 16.5625 24 19 C24.08212593 25.66862527 21.07543602 29.02976064 16.8125 33.6875 C16.24724609 34.33783203 15.68199219 34.98816406 15.09960938 35.65820312 C10.74841237 40.54769255 6.80184147 44.64421061 0.0625 45.5 C-5.2237996 45.1878566 -9.08282961 42.93876014 -12.734375 39.24609375 C-16.88988049 34.50683868 -18.38679808 31.6506491 -18.265625 25.2890625 C-17.85537105 21.75363873 -16.23058979 19.62212949 -14 17 C-13.3090625 16.14148438 -12.618125 15.28296875 -11.90625 14.3984375 C-9.62676425 11.57947345 -7.31960218 8.78599906 -5 6 C-4.44054687 5.32582031 -3.88109375 4.65164063 -3.3046875 3.95703125 C-2.20607765 2.63556055 -1.10365225 1.31726236 0 0 Z " fill="#0E7B7B" transform="translate(151,499)"/>
<path d="M0 0 C0.75 3.125 0.75 3.125 1 6 C-3.96093728 8.27376292 -8.67812773 9.78623966 -14 11 C-13.67 12.65 -13.34 14.3 -13 16 C-12.18015625 15.68804688 -11.3603125 15.37609375 -10.515625 15.0546875 C-8.89914062 14.47074219 -8.89914062 14.47074219 -7.25 13.875 C-6.18265625 13.48054687 -5.1153125 13.08609375 -4.015625 12.6796875 C-1 12 -1 12 1.390625 12.8828125 C2.18726563 13.43582031 2.18726563 13.43582031 3 14 C3.3125 16.8125 3.3125 16.8125 3 20 C-0.58827582 23.1533333 -4.34823653 23.54394476 -9 24 C-8.67 25.98 -8.34 27.96 -8 30 C-7.19175781 29.69964844 -6.38351562 29.39929688 -5.55078125 29.08984375 C-4.48214844 28.70957031 -3.41351563 28.32929687 -2.3125 27.9375 C-0.72888672 27.36322266 -0.72888672 27.36322266 0.88671875 26.77734375 C4.09333792 25.9766948 5.8686307 26.0762751 9 27 C9.495 29.97 9.495 29.97 10 33 C5.83549086 35.77090628 1.66991981 37.28386077 -3.0625 38.75 C-4.12307617 39.09998047 -4.12307617 39.09998047 -5.20507812 39.45703125 C-8.86561972 40.60503209 -11.36324035 41.31838495 -15 40 C-18.49357454 35.5993534 -19.93547189 29.89205735 -21.6875 24.625 C-22.00783203 23.70460938 -22.32816406 22.78421875 -22.65820312 21.8359375 C-24.34502866 16.80063741 -25.70134043 12.37462867 -25 7 C-21.90038744 3.13055292 -17.61182686 2.19435214 -13.0625 0.6875 C-12.25103516 0.39810547 -11.43957031 0.10871094 -10.60351562 -0.18945312 C-9.81783203 -0.45306641 -9.03214844 -0.71667969 -8.22265625 -0.98828125 C-7.50859619 -1.23102783 -6.79453613 -1.47377441 -6.05883789 -1.72387695 C-3.37975032 -2.08318539 -2.19002077 -1.54587937 0 0 Z " fill="#127D7D" transform="translate(414,551)"/>
<path d="M0 0 C2.875 -0.125 2.875 -0.125 6 0 C8 2 8 2 8.046875 3.91796875 C7.41009133 8.78601236 6.49349421 13.3203848 5 18 C6.65 18.33 8.3 18.66 10 19 C10.12375 17.96875 10.2475 16.9375 10.375 15.875 C10.93889814 12.37883154 11.78682059 9.31602373 13 6 C15.875 5.875 15.875 5.875 19 6 C19.66 6.66 20.32 7.32 21 8 C20.61765316 12.87492223 19.4234304 17.35012736 18 22 C19.98 22.33 21.96 22.66 24 23 C24.12117187 22.40832031 24.24234375 21.81664062 24.3671875 21.20703125 C25.26744643 16.96196415 26.20456621 12.97560339 28 9 C30.875 8.875 30.875 8.875 34 9 C34.66 9.66 35.32 10.32 36 11 C35.6143787 18.57894169 32.76773137 27.393499 28.87109375 33.87890625 C25.6687375 35.7976458 22.45701836 34.78522882 19 34 C15.36992499 33.0244347 11.81310174 31.88271767 8.25 30.6875 C7.31800781 30.39166016 6.38601563 30.09582031 5.42578125 29.79101562 C-3.31946711 26.88638866 -3.31946711 26.88638866 -6 23 C-6.14869135 15.11935848 -2.59330302 7.34928679 0 0 Z " fill="#117C7C" transform="translate(561,382)"/>
<path d="M0 0 C1.62490954 -0.02698189 3.24994633 -0.04638757 4.875 -0.0625 C5.77992188 -0.07410156 6.68484375 -0.08570313 7.6171875 -0.09765625 C10 0 10 0 12 1 C12 12.22 12 23.44 12 35 C17.61 35 23.22 35 29 35 C30 36 30 36 30.125 39.4375 C30 43 30 43 29 45 C24.75022954 45.11611395 20.50086663 45.18722349 16.25 45.25 C15.0434375 45.28351563 13.836875 45.31703125 12.59375 45.3515625 C11.43359375 45.36445312 10.2734375 45.37734375 9.078125 45.390625 C7.47565918 45.4220459 7.47565918 45.4220459 5.84082031 45.45410156 C3 45 3 45 0.64672852 43.52880859 C-1.78854721 39.78906271 -1.51842271 36.5199315 -1.42578125 32.1484375 C-1.42249313 31.29319489 -1.41920502 30.43795227 -1.41581726 29.55679321 C-1.40541061 27.75295376 -1.38548463 25.94914745 -1.35668945 24.14550781 C-1.31254895 21.37806907 -1.29524322 18.61149747 -1.28320312 15.84375 C-1.26978151 14.09113326 -1.25485921 12.33852723 -1.23828125 10.5859375 C-1.23089432 9.7557309 -1.22350739 8.92552429 -1.21589661 8.07015991 C-1.11837335 2.23674671 -1.11837335 2.23674671 0 0 Z " fill="#0E7B7B" transform="translate(309,35)"/>
<path d="M0 0 C2 2 2 2 2.125 4.625 C2.08375 5.40875 2.0425 6.1925 2 7 C0.88625 7.45375 -0.2275 7.9075 -1.375 8.375 C-4.96199008 9.72465986 -4.96199008 9.72465986 -7 12 C-7.65281006 17.12693587 -7.65281006 17.12693587 -5.94921875 21.82421875 C-4.17093333 23.99068447 -2.52353867 25.73823066 0 27 C4.63466801 27.41197049 7.35466537 26.95567673 11 24 C12.82629794 20.93319201 12.82629794 20.93319201 14 18 C18.75 18.75 18.75 18.75 21 21 C21.12825335 26.38664086 18.53751699 29.4170064 15.02734375 33.1640625 C10.90940653 36.89321567 6.98371581 38.71661203 1.5 39.5 C-6.13089197 38.40987258 -10.80128958 34.87138034 -15.58984375 28.9375 C-18.73184118 24.62051738 -19.56882958 20.69492288 -19.4453125 15.41015625 C-18.3587513 9.52938205 -14.44366319 5.25936576 -10.0625 1.4375 C-6.42260742 -0.27102101 -3.97643291 -0.45881918 0 0 Z " fill="#117D7D" transform="translate(512,485)"/>
<path d="M0 0 C4.29647436 2.36573189 7.132167 5.46507523 9 10 C9.45604898 14.71250609 9.49819138 17.00361725 7.375 21.25 C4.1772477 24.95266056 1.57835584 27.50563756 -3.36328125 28.453125 C-8.15735433 28.77321486 -11.23619577 28.34590578 -15 25.25 C-18.5735571 21.84824853 -19.89790303 19.05500199 -20.375 14.125 C-20.22243247 8.6529114 -17.41716175 5.63188322 -13.9375 1.625 C-9.37289743 -0.90009929 -5.08534428 -0.97487287 0 0 Z " fill="#C8CACA" transform="translate(327,269)"/>
<path d="M0 0 C2.17578125 1.93359375 2.17578125 1.93359375 4.3125 4.4375 C5.08078125 5.33082031 5.8490625 6.22414063 6.640625 7.14453125 C10.14726412 11.38849349 13.6117512 15.66082579 17 20 C15.2890625 24.859375 15.2890625 24.859375 12.6875 26.125 C10 26 10 26 7.1875 23.5625 C6.465625 22.716875 5.74375 21.87125 5 21 C0.58623609 22.42610783 -2.04116223 24.62672666 -5.375 27.8125 C-9.41324142 31.58844698 -13.4046706 34.93644707 -18 38 C-22.72727273 33.86363636 -22.72727273 33.86363636 -23.75 30.625 C-21.48132363 22.68463269 -11.13328107 16.89109756 -5 12 C-5.69378511 8.73988358 -6.45893991 7.20961747 -9 5 C-7.05292048 -0.42400723 -5.75937287 -1.82904751 0 0 Z " fill="#107C7C" transform="translate(125,469)"/>
<path d="M0 0 C2.40234375 1.64453125 2.40234375 1.64453125 4.9375 3.8125 C5.88753906 4.616875 6.83757812 5.42125 7.81640625 6.25 C8.87801666 7.16618892 9.93919016 8.08288426 11 9 C12.21695038 10.04224788 13.4344162 11.08389417 14.65234375 12.125 C16.48470619 13.6922872 18.31552505 15.2611349 20.14038086 16.8371582 C23.37438914 19.62878954 26.64409884 22.35424272 30 25 C29.66093677 28.05156911 28.73958327 29.33482151 26.8125 31.8125 C24 34 24 34 21.234375 33.97265625 C17.12280181 32.73620489 14.53219503 30.47049922 11.4375 27.625 C10.21150777 26.53451478 8.98493067 25.4446868 7.7578125 24.35546875 C7.1380957 23.79907715 6.51837891 23.24268555 5.87988281 22.66943359 C2.90879952 20.03095729 -0.13999087 17.48686277 -3.1875 14.9375 C-9.34888043 9.77866484 -9.34888043 9.77866484 -12 7 C-11.21366078 5.85050412 -10.42073742 4.70551011 -9.625 3.5625 C-9.18414062 2.92441406 -8.74328125 2.28632813 -8.2890625 1.62890625 C-5.72800193 -1.60734302 -3.71473679 -1.10847313 0 0 Z " fill="#0F7C7C" transform="translate(110,135)"/>
<path d="M0 0 C4.64663253 4.92043757 8.00047603 10.61012292 11.5 16.375 C12.61446764 18.19538334 13.72904932 20.01569686 14.84375 21.8359375 C15.63652344 23.14449707 15.63652344 23.14449707 16.4453125 24.47949219 C17.45514321 26.1166612 18.49046714 27.73847345 19.5546875 29.34082031 C20.02132812 30.04561523 20.48796875 30.75041016 20.96875 31.4765625 C21.38576172 32.08838379 21.80277344 32.70020508 22.23242188 33.33056641 C23 35 23 35 22 38 C19.28650197 40.09326991 17.32868807 40.94633664 13.9375 41.5 C9.96091828 40.82313503 9.3257974 39.21901809 7 36 C5.86501953 34.25007309 4.76148994 32.47941366 3.6875 30.69140625 C3.08679688 29.69689453 2.48609375 28.70238281 1.8671875 27.67773438 C1.25101563 26.64970703 0.63484375 25.62167969 0 24.5625 C-5.3258056 15.6703571 -5.3258056 15.6703571 -11 7 C-8.92440814 1.98398634 -5.67371849 -1.2454504 0 0 Z " fill="#0F7B7B" transform="translate(177,76)"/>
<path d="M0 0 C6.625 -0.25 6.625 -0.25 10 2 C10.9246612 11.70894263 8.64625204 21.45565783 7 31 C8.87171875 30.9690625 8.87171875 30.9690625 10.78125 30.9375 C14.53598841 30.87543821 17.48873592 31.59549437 21 33 C21.125 35.875 21.125 35.875 21 39 C19 41 19 41 16.75 41.046875 C-0.85350318 39.14649682 -0.85350318 39.14649682 -4 36 C-4.93111696 27.68498861 -3.49104193 19.41043217 -2 11.25 C-1.80921875 10.15945313 -1.6184375 9.06890625 -1.421875 7.9453125 C-0.95693171 5.29513576 -0.48289874 2.64695294 0 0 Z " fill="#117C7C" transform="translate(273,561)"/>
<path d="M0 0 C3.43483569 0.09367734 4.17536826 0.42872385 7.125 2.5625 C9.53960108 5.92830756 10.34422192 7.28436917 10.1875 11.4375 C8.15991644 17.04892644 5.65025949 22.57605455 0.1875 25.4375 C-4.13688094 26.13248979 -6.04447622 25.92772795 -9.75 23.5625 C-12.23616141 19.79558877 -12.58492192 17.45766988 -12.37890625 13.01171875 C-11.04176888 6.93465994 -6.19474658 0.71087256 0 0 Z " fill="#F9FCFC" transform="translate(438.8125,71.5625)"/>
<path d="M0 0 C2.03515625 1.84375 2.03515625 1.84375 4.0625 4.5 C4.825625 5.48613281 5.58875 6.47226562 6.375 7.48828125 C7.25105717 8.65806319 8.1259652 9.82870622 9 11 C10.08281211 12.43138403 11.16617196 13.86235382 12.25 15.29296875 C15.18623748 19.18095217 18.09796814 23.08643081 21 27 C19.63016497 30.16115776 19.0109362 30.9927092 16 33 C13.56640625 33.40625 13.56640625 33.40625 11 33 C8.96484375 31.15625 8.96484375 31.15625 6.9375 28.5 C6.174375 27.51386719 5.41125 26.52773438 4.625 25.51171875 C3.74894283 24.34193681 2.8740348 23.17129378 2 22 C0.91718789 20.56861597 -0.16617196 19.13764618 -1.25 17.70703125 C-4.18623748 13.81904783 -7.09796814 9.91356919 -10 6 C-7.92615348 1.21420034 -5.3227485 -0.84256597 0 0 Z " fill="#107C7C" transform="translate(477,514)"/>
<path d="M0 0 C4.08559052 0.6198827 7.51705682 1.94553373 10.83203125 4.4296875 C13.29944095 8.13080204 13.60856242 11.13789155 12.83203125 15.4296875 C10.95703125 18.4296875 10.95703125 18.4296875 7.83203125 20.4296875 C1.90330958 21.4556227 -3.10403577 20.80564282 -8.16796875 17.4296875 C-10.54296875 15.7421875 -10.54296875 15.7421875 -12.16796875 13.4296875 C-12.74101786 8.91692574 -12.66659592 6.56940675 -10.85546875 2.4296875 C-7.19724566 -0.29271108 -4.47520873 -0.20369089 0 0 Z " fill="#FBFDFD" transform="translate(72.16796875,223.5703125)"/>
<path d="M0 0 C3.85890991 0.54358541 6.1139477 1.51804373 9.14453125 3.94921875 C9.90443359 4.55056641 10.66433594 5.15191406 11.44726562 5.77148438 C12.22779297 6.40376953 13.00832031 7.03605469 13.8125 7.6875 C15.36016225 8.92121903 16.90833579 10.15429696 18.45703125 11.38671875 C19.20807129 11.98790527 19.95911133 12.5890918 20.73291016 13.20849609 C24.10504411 15.87322999 27.54471603 18.44444951 31 21 C27.61510108 27.6489086 27.61510108 27.6489086 25.26171875 28.9921875 C21.63865583 29.0047024 19.32554231 26.80207709 16.5625 24.6875 C15.95575439 24.23689209 15.34900879 23.78628418 14.72387695 23.32202148 C13.45174884 22.37331298 12.18415621 21.418496 10.92089844 20.45800781 C9.03434144 19.02606597 7.1326003 17.61680228 5.2265625 16.2109375 C4.04599193 15.32930626 2.86627055 14.44653647 1.6875 13.5625 C1.13070557 13.1502417 0.57391113 12.7379834 0.00024414 12.31323242 C-2.68907126 10.25973501 -3.90349774 9.28950679 -5 6 C-3.59554165 3.7363436 -1.8032087 1.9791315 0 0 Z " fill="#0F7C7C" transform="translate(522,464)"/>
<path d="M0 0 C0.99 0.495 0.99 0.495 2 1 C2 1.99 2 2.98 2 4 C-12.08300595 10.23713844 -25.85459652 15.11832444 -41 18 C-41.68642578 18.13519043 -42.37285156 18.27038086 -43.08007812 18.40966797 C-62.37227978 22.07440759 -81.4177609 18.4885289 -100 13 C-100 12.67 -100 12.34 -100 12 C-98.33317469 12.1440088 -96.66654815 12.29031844 -95 12.4375 C-93.6078125 12.55931641 -93.6078125 12.55931641 -92.1875 12.68359375 C-89.89781587 12.91087857 -87.61322144 13.191818 -85.33398438 13.50708008 C-81.0370796 14.04606454 -76.79579273 14.17826506 -72.46875 14.203125 C-71.67456665 14.20882507 -70.8803833 14.21452515 -70.06213379 14.22039795 C-68.38811549 14.2297878 -66.71407921 14.23635779 -65.04003906 14.24023438 C-62.53415811 14.24986867 -60.02912426 14.28091986 -57.5234375 14.3125 C-43.18290475 14.40876658 -29.98075144 12.5567816 -16.4375 7.5625 C-15.61443359 7.27568359 -14.79136719 6.98886719 -13.94335938 6.69335938 C-10.08704497 5.31148773 -6.55077874 3.82712197 -3.03515625 1.71484375 C-2.03355469 1.14894531 -1.03195312 0.58304687 0 0 Z " fill="#B6C2C2" transform="translate(479,394)"/>
<path d="M0 0 C0.54785156 0.17015625 1.09570312 0.3403125 1.66015625 0.515625 C6.896302 2.11626793 12.1554528 3.62046871 17.4375 5.0625 C19.19900391 5.54396484 19.19900391 5.54396484 20.99609375 6.03515625 C22.32910909 6.363421 23.66389164 6.68456047 25 7 C25.74685059 7.18457764 26.49370117 7.36915527 27.26318359 7.55932617 C35.55978698 9.35769518 43.79646702 9.26933588 52.24121094 9.20581055 C54.73122555 9.18763703 57.22086357 9.18530111 59.7109375 9.18554688 C69.51369891 9.16330433 79.22835134 8.7959845 89 8 C74.9010166 17.39932227 49.81103353 16.02100745 34 13 C33.34209473 12.87496094 32.68418945 12.74992187 32.00634766 12.62109375 C20.21389859 10.30587382 9.1741232 6.36661675 -2 2 C-1.34 1.34 -0.68 0.68 0 0 Z " fill="#B9C4C4" transform="translate(171,399)"/>
<path d="M0 0 C3.97465582 3.19700577 6.80009792 6.20088127 7.375 11.375 C6.93848064 15.59468716 6.05559633 17.11415902 3 20 C0.859375 20.6328125 0.859375 20.6328125 -1 21 C-2.29574871 18.77312024 -3.58667308 16.54366825 -4.875 14.3125 C-5.23980469 13.68666016 -5.60460937 13.06082031 -5.98046875 12.41601562 C-7.93741197 9.01805058 -9.65607739 5.69932381 -11 2 C-7.32800472 -0.44799685 -4.26670698 -0.83334121 0 0 Z " fill="#F7FBFB" transform="translate(450,543)"/>
<path d="M0 0 C6.50535465 0.48187812 11.57278003 2.88976296 17.4375 5.625 C40.57634489 15.9943211 65.61544641 22.00841588 91 23 C91 23.33 91 23.66 91 24 C60.4790162 28.2401917 26.69033041 14.89052051 0 1 C0 0.67 0 0.34 0 0 Z " fill="#278989" transform="translate(217,513)"/>
<path d="M0 0 C1.05058594 0.20044922 2.10117187 0.40089844 3.18359375 0.60742188 C9.39587126 1.84757369 15.21446707 3.49887343 21.12426758 5.78491211 C24.20740422 6.9562569 27.31503093 7.83817491 30.5 8.6875 C28.16258075 10.1669133 26.98677089 10.76226021 24.20776367 10.33544922 C23.36963135 10.05717285 22.53149902 9.77889648 21.66796875 9.4921875 C20.7155127 9.19006348 19.76305664 8.88793945 18.78173828 8.57666016 C17.76063965 8.2419873 16.73954102 7.90731445 15.6875 7.5625 C7.22719218 4.93582007 -1.13565623 2.77951537 -9.875 1.3125 C-11.25328979 1.08022705 -11.25328979 1.08022705 -12.65942383 0.84326172 C-18.58683339 -0.10724325 -24.52132216 -0.77981026 -30.5 -1.3125 C-30.5 -1.6425 -30.5 -1.9725 -30.5 -2.3125 C-20.2771486 -4.35707028 -10.07420138 -2.03338175 0 0 Z " fill="#359090" transform="translate(368.5,101.3125)"/>
<path d="M0 0 C0.99 0 1.98 0 3 0 C2.74605469 1.07894531 2.49210937 2.15789062 2.23046875 3.26953125 C-0.69338477 15.91626743 -2.99048099 28.60807841 -4.55859375 41.49609375 C-4.6447998 42.19452393 -4.73100586 42.8929541 -4.81982422 43.61254883 C-5.04784787 45.50349345 -5.26077328 47.39624134 -5.47265625 49.2890625 C-5.64667969 50.18367188 -5.82070312 51.07828125 -6 52 C-6.99 52.495 -6.99 52.495 -8 53 C-7.07392772 35.18124163 -5.68196261 17.04588782 0 0 Z " fill="#2A8A8A" transform="translate(108,256)"/>
<path d="M0 0 C2.45234885 0.98093954 3.7809268 1.68703828 5.3125 3.875 C6.1301827 6.40238291 5.97884168 7.55289581 5 10 C3 12 3 12 0.125 12.4375 C-3 12 -3 12 -5.375 9.5 C-5.91125 8.675 -6.4475 7.85 -7 7 C-4.66666667 4.66666667 -2.33333333 2.33333333 0 0 Z " fill="#F2F7F7" transform="translate(530,141)"/>
<path d="M0 0 C3 0.25 3 0.25 5 2.25 C5.375 5.125 5.375 5.125 5 8.25 C3 10.625 3 10.625 1 12.25 C-1.64 10.6 -4.28 8.95 -7 7.25 C-4.46606335 0.37217195 -4.46606335 0.37217195 0 0 Z " fill="#F5F9F9" transform="translate(90,174.75)"/>
<path d="M0 0 C1.24680542 0.26055176 1.24680542 0.26055176 2.51879883 0.52636719 C3.41236084 0.7174707 4.30592285 0.90857422 5.2265625 1.10546875 C16.05337974 3.31203924 26.84476651 4.44543431 37.8515625 5.29296875 C37.8515625 5.62296875 37.8515625 5.95296875 37.8515625 6.29296875 C24.08112141 8.20605616 4.74926687 8.22477166 -7.1484375 0.29296875 C-3.99844209 -0.75702972 -3.11542579 -0.68280951 0 0 Z " fill="#3E9595" transform="translate(270.1484375,530.70703125)"/>
<path d="M0 0 C4.75 0.75 4.75 0.75 7 3 C6.625 6.125 6.625 6.125 6 9 C3.08517222 9.80967438 1.53886783 10.21845993 -1.3125 9.0625 C-1.869375 8.711875 -2.42625 8.36125 -3 8 C-1.125 2.25 -1.125 2.25 0 0 Z " fill="#EFF6F6" transform="translate(194,541)"/>
<path d="M0 0 C0.66 0.33 1.32 0.66 2 1 C-0.08537371 9.94048515 -2.20273318 18.59753724 -6 27 C-6.66 26.67 -7.32 26.34 -8 26 C-6.32506303 19.78243093 -4.61544725 13.57454934 -2.875 7.375 C-2.37613281 5.59222656 -2.37613281 5.59222656 -1.8671875 3.7734375 C-1 1 -1 1 0 0 Z " fill="#369191" transform="translate(535,370)"/>
<path d="M0 0 C0.33 0 0.66 0 1 0 C0.6443896 11.05948329 -1.38850735 21.28680689 -4 32 C-4.66 31.67 -5.32 31.34 -6 31 C-5.31138336 26.74499415 -4.61751598 22.49088879 -3.91870117 18.23754883 C-3.68156591 16.78954469 -3.4458845 15.34130169 -3.21166992 13.89282227 C-2.87537609 11.81462593 -2.53391681 9.73733584 -2.19140625 7.66015625 C-1.98717041 6.40855713 -1.78293457 5.15695801 -1.57250977 3.86743164 C-1 1 -1 1 0 0 Z " fill="#2B8B8B" transform="translate(541,339)"/>
<path d="M0 0 C0.66 0 1.32 0 2 0 C2.86627399 1.59766103 3.71766465 3.20339944 4.5625 4.8125 C5.27599609 6.15248047 5.27599609 6.15248047 6.00390625 7.51953125 C7 10 7 10 6 13 C3.69 13 1.38 13 -1 13 C-0.67 8.71 -0.34 4.42 0 0 Z " fill="#EDF5F5" transform="translate(271,52)"/>
<path d="M0 0 C-3.23158388 1.80129803 -6.3353235 2.66255614 -9.9375 3.47265625 C-11.07960938 3.73240234 -12.22171875 3.99214844 -13.3984375 4.25976562 C-14.58695312 4.52466797 -15.77546875 4.78957031 -17 5.0625 C-19.35420617 5.59487743 -21.70837445 6.12742242 -24.0625 6.66015625 C-25.10535156 6.89355713 -26.14820313 7.12695801 -27.22265625 7.36743164 C-29.93000098 7.94431396 -29.93000098 7.94431396 -32.24609375 8.70874023 C-32.82488281 8.80485596 -33.40367187 8.90097168 -34 9 C-34.66 8.34 -35.32 7.68 -36 7 C-9.87360742 -0.30056644 -9.87360742 -0.30056644 0 0 Z " fill="#8DB1B1" transform="translate(289,422)"/>
<path d="M0 0 C0 0.33 0 0.66 0 1 C-0.61520508 1.14622803 -1.23041016 1.29245605 -1.86425781 1.44311523 C-4.65956186 2.10767215 -7.45478173 2.77258242 -10.25 3.4375 C-11.21808594 3.66759766 -12.18617188 3.89769531 -13.18359375 4.13476562 C-14.11816406 4.35712891 -15.05273438 4.57949219 -16.015625 4.80859375 C-16.87446289 5.01282959 -17.73330078 5.21706543 -18.61816406 5.42749023 C-20.98315044 5.96502247 -20.98315044 5.96502247 -23.18652344 6.69946289 C-23.7849707 6.79864014 -24.38341797 6.89781738 -25 7 C-25.66 6.34 -26.32 5.68 -27 5 C-24.41710408 4.18608745 -21.83371003 3.37382071 -19.25 2.5625 C-18.52039063 2.33240234 -17.79078125 2.10230469 -17.0390625 1.86523438 C-16.33007812 1.64287109 -15.62109375 1.42050781 -14.890625 1.19140625 C-14.24125977 0.98717041 -13.59189453 0.78293457 -12.92285156 0.57250977 C-12.28831055 0.38358154 -11.65376953 0.19465332 -11 0 C-10.00564941 -0.29789429 -10.00564941 -0.29789429 -8.99121094 -0.60180664 C-5.90243922 -1.21948524 -3.07179989 -0.53165767 0 0 Z " fill="#308E8E" transform="translate(277,103)"/>
<path d="M0 0 C2 1 2 1 3.25390625 4.5703125 C3.69825696 6.08617558 4.13408098 7.60455744 4.5625 9.125 C4.78357422 9.87265625 5.00464844 10.6203125 5.23242188 11.390625 C6.53831027 15.91980892 7.44745269 20.31886883 8 25 C7.34 25 6.68 25 6 25 C4.99131083 21.58583753 3.99457679 18.16829771 3 14.75 C2.71382812 13.78191406 2.42765625 12.81382812 2.1328125 11.81640625 C1.86210938 10.88183594 1.59140625 9.94726562 1.3125 8.984375 C0.93544922 7.69611816 0.93544922 7.69611816 0.55078125 6.38183594 C0 4 0 4 0 0 Z " fill="#208585" transform="translate(529,243)"/>
<path d="M0 0 C1.07980476 3.21750519 0.97733906 4.82122732 -0.43359375 7.890625 C-0.75263672 8.59960938 -1.07167969 9.30859375 -1.40039062 10.0390625 C-1.74263672 10.76867187 -2.08488281 11.49828125 -2.4375 12.25 C-2.77587891 12.99507813 -3.11425781 13.74015625 -3.46289062 14.5078125 C-4.29826304 16.34327865 -5.14777967 18.17229555 -6 20 C-6.99 19.67 -7.98 19.34 -9 19 C-7.69124677 16.01917332 -6.37737319 13.04063158 -5.0625 10.0625 C-4.68931641 9.21236328 -4.31613281 8.36222656 -3.93164062 7.48632812 C-3.57392578 6.67744141 -3.21621094 5.86855469 -2.84765625 5.03515625 C-2.51773682 4.2862915 -2.18781738 3.53742676 -1.84790039 2.76586914 C-1 1 -1 1 0 0 Z " fill="#288989" transform="translate(527,396)"/>
<path d="M0 0 C0.33 0 0.66 0 1 0 C1 3.63 1 7.26 1 11 C-1.31 10.67 -3.62 10.34 -6 10 C-4.34784004 6.42032008 -2.26875648 3.22017048 0 0 Z " fill="#EEF6F6" transform="translate(240,563)"/>
<path d="M0 0 C-1.11878383 1.17262904 -2.24523051 2.33795138 -3.375 3.5 C-4.00148438 4.1496875 -4.62796875 4.799375 -5.2734375 5.46875 C-7 7 -7 7 -9 7 C-11 4 -11 4 -11 1 C-3.375 -1.125 -3.375 -1.125 0 0 Z " fill="#EBF4F4" transform="translate(100,451)"/>
<path d="M0 0 C6.68412752 3.63566563 13.35556707 7.29224236 20 11 C18.4453125 11.73046875 18.4453125 11.73046875 16 12 C13.47138693 10.87000779 11.23844573 9.71838473 8.875 8.3125 C8.24207031 7.95994141 7.60914063 7.60738281 6.95703125 7.24414062 C3.57486304 5.2801852 1.2533846 3.80307793 0 0 Z " fill="#1E8484" transform="translate(200,501)"/>
<path d="M0 0 C0.99 0 1.98 0 3 0 C1.68 5.94 0.36 11.88 -1 18 C-3 16 -3 16 -3.046875 14.08203125 C-2.41009133 9.21398764 -1.49349421 4.6796152 0 0 Z " fill="#3D9595" transform="translate(108,256)"/>
<path d="M0 0 C0.99 0.33 1.98 0.66 3 1 C0.52424786 3.68206482 -2.15480404 6.03528159 -5 8.3125 C-5.66 8.84488281 -6.32 9.37726563 -7 9.92578125 C-9 11 -9 11 -11.25 10.66796875 C-11.8275 10.44753906 -12.405 10.22710937 -13 10 C-10.90516399 8.29962669 -8.80057275 6.61493394 -6.6875 4.9375 C-6.09259766 4.45216797 -5.49769531 3.96683594 -4.88476562 3.46679688 C-3.3162821 2.23128751 -1.66163416 1.10706635 0 0 Z " fill="#2B8B8B" transform="translate(459,488)"/>
<path d="M0 0 C0.66 0 1.32 0 2 0 C3.65 5.94 5.3 11.88 7 18 C6.34 18.66 5.68 19.32 5 20 C2.8915995 13.39367844 1.23416987 6.82423338 0 0 Z " fill="#218585" transform="translate(105,365)"/>
<path d="M0 0 C0.99 0.33 1.98 0.66 3 1 C0.87941855 2.67257128 -1.24604076 4.33815418 -3.375 6 C-3.97828125 6.47695312 -4.5815625 6.95390625 -5.203125 7.4453125 C-9.7734375 11 -9.7734375 11 -12 11 C-10.70439388 7.11318165 -8.90843632 6.14578818 -5.625 3.75 C-4.64789063 3.02296875 -3.67078125 2.2959375 -2.6640625 1.546875 C-1.78492188 1.03640625 -0.90578125 0.5259375 0 0 Z " fill="#1F8484" transform="translate(199,133)"/>
<path d="M0 0 C0.66 0.33 1.32 0.66 2 1 C1.01 5.29 0.02 9.58 -1 14 C-1.99 13.67 -2.98 13.34 -4 13 C-3.52511102 11.01980257 -3.04497141 9.04086365 -2.5625 7.0625 C-2.29566406 5.96035156 -2.02882813 4.85820312 -1.75390625 3.72265625 C-1 1 -1 1 0 0 Z " fill="#469A9A" transform="translate(535,370)"/>
<path d="M0 0 C5.96564796 0.50771472 10.63809899 2.38592128 16 5 C15.01 5.66 14.02 6.32 13 7 C9.86328125 5.8828125 9.86328125 5.8828125 6.3125 4.125 C5.13300781 3.55007813 3.95351562 2.97515625 2.73828125 2.3828125 C1.83464844 1.92648437 0.93101562 1.47015625 0 1 C0 0.67 0 0.34 0 0 Z " fill="#318E8E" transform="translate(217,513)"/>
<path d="M0 0 C3.03656917 2.5988655 4.46163739 5.62071728 6.1875 9.1875 C6.71730469 10.27417969 7.24710938 11.36085938 7.79296875 12.48046875 C8.19128906 13.31191406 8.58960938 14.14335937 9 15 C8.01 15.495 8.01 15.495 7 16 C0.29612756 5.62642369 0.29612756 5.62642369 0 0 Z " fill="#1B8282" transform="translate(124,416)"/>
<path d="M0 0 C5.15464734 0.48324819 8.81550319 3.18610761 13 6 C12.67 6.99 12.34 7.98 12 9 C9.99492073 7.88407791 7.99603904 6.75701288 6 5.625 C4.88625 4.99851563 3.7725 4.37203125 2.625 3.7265625 C1.75875 3.15679687 0.8925 2.58703125 0 2 C0 1.34 0 0.68 0 0 Z " fill="#288989" transform="translate(428,125)"/>
<path d="M0 0 C0.66 0.66 1.32 1.32 2 2 C-2.09725269 3.04167441 -5.61495224 2.94409525 -9.8125 2.5625 C-10.97394531 2.46066406 -12.13539063 2.35882812 -13.33203125 2.25390625 C-14.21246094 2.17011719 -15.09289062 2.08632813 -16 2 C-16 1.67 -16 1.34 -16 1 C-4.15114423 -0.31133582 -4.15114423 -0.31133582 0 0 Z " fill="#3C9494" transform="translate(354,535)"/>
<path d="M0 0 C0.99 0.66 1.98 1.32 3 2 C1.68 7.61 0.36 13.22 -1 19 C-2.06768288 14.72926847 -1.70948995 11.50164825 -1.0625 7.25 C-0.96259766 6.55261719 -0.86269531 5.85523438 -0.75976562 5.13671875 C-0.51334127 3.42348274 -0.25759045 1.71159275 0 0 Z " fill="#9FB8B8" transform="translate(343,360)"/>
<path d="M0 0 C4.02920351 1.34306784 4.8706069 3.39014203 6.9921875 6.921875 C8.19764322 9.40754338 8.42632348 11.27152974 8 14 C5.66635648 11.07096942 3.95039164 8.11431797 2.3125 4.75 C1.65701172 3.41195312 1.65701172 3.41195312 0.98828125 2.046875 C0.66214844 1.37140625 0.33601563 0.6959375 0 0 Z " fill="#1B8282" transform="translate(510,205)"/>
<path d="M0 0 C2.20756126 0.48415327 4.02413293 1.22748542 5.94140625 2.42578125 C0.48031736 3.82606045 -3.75135943 2.85283759 -9.05859375 1.42578125 C-5.57961952 -0.8935349 -4.02414877 -0.6151093 0 0 Z " fill="#419797" transform="translate(375.05859375,102.57421875)"/>
<path d="M0 0 C-3.66830909 2.44553939 -6.63377915 2.95607424 -11 3 C-13.5 2.0625 -13.5 2.0625 -15 1 C-9.92928099 0.28832014 -5.11791642 -0.10662326 0 0 Z " fill="#A4BBBB" transform="translate(260,407)"/>
<path d="M0 0 C0.66 0 1.32 0 2 0 C2.335939 1.4577353 2.66866624 2.91621106 3 4.375 C3.185625 5.18710937 3.37125 5.99921875 3.5625 6.8359375 C4 9 4 9 4 11 C3.34 11 2.68 11 2 11 C0.80712589 7.12315913 0 4.08378077 0 0 Z " fill="#2C8B8B" transform="translate(103,354)"/>
<path d="M0 0 C2 1 2 1 2.703125 2.77734375 C2.88359375 3.49019531 3.0640625 4.20304687 3.25 4.9375 C3.44078125 5.64777344 3.6315625 6.35804688 3.828125 7.08984375 C3.88484375 7.72019531 3.9415625 8.35054688 4 9 C3.34 9.66 2.68 10.32 2 11 C0.19769832 7.17010894 -0.19622241 4.21878192 0 0 Z " fill="#399292" transform="translate(111,384)"/>
<path d="M0 0 C-0.33 0.99 -0.66 1.98 -1 3 C-4.5625 4.6875 -4.5625 4.6875 -8 6 C-8.66 5.34 -9.32 4.68 -10 4 C-8.71086513 3.32845067 -7.41859796 2.66291141 -6.125 2 C-5.40570313 1.62875 -4.68640625 1.2575 -3.9453125 0.875 C-2 0 -2 0 0 0 Z " fill="#349090" transform="translate(229,117)"/>
<path d="M0 0 C-1.8125 2 -1.8125 2 -4 4 C-4.99 4 -5.98 4 -7 4 C-7.33 3.01 -7.66 2.02 -8 1 C-2.25 -1.125 -2.25 -1.125 0 0 Z " fill="#A7BCBC" transform="translate(463,403)"/>
<path d="M0 0 C4.95 0.99 4.95 0.99 10 2 C10 2.33 10 2.66 10 3 C7.03 3 4.06 3 1 3 C0.67 2.01 0.34 1.02 0 0 Z " fill="#2C8C8C" transform="translate(359,100)"/>
<path d="M0 0 C-2.66559313 1.77706209 -5.0280615 2.87548273 -8 4 C-8 3.01 -8 2.02 -8 1 C-3.375 -1.125 -3.375 -1.125 0 0 Z " fill="#2C8C8C" transform="translate(416,518)"/>
<path d="M0 0 C1.0326802 2.78823655 1.04509293 3.8677274 0.0625 6.75 C-0.288125 7.4925 -0.63875 8.235 -1 9 C-1.66 8.67 -2.32 8.34 -3 8 C-1.125 1.125 -1.125 1.125 0 0 Z " fill="#248787" transform="translate(116,235)"/>
<path d="M0 0 C0.99 0.33 1.98 0.66 3 1 C1.25 3.0625 1.25 3.0625 -1 5 C-3.25 4.75 -3.25 4.75 -5 4 C-2.6875 1.9375 -2.6875 1.9375 0 0 Z " fill="#2C8C8C" transform="translate(185,143)"/>
<path d="M0 0 C0 0.33 0 0.66 0 1 C-7.625 2.25 -7.625 2.25 -11 0 C-7.18243176 -1.37432457 -3.92744671 -0.67975039 0 0 Z " fill="#3F9696" transform="translate(277,103)"/>
</svg>
